M48
; DRILL file KiCad 10.0.1 date 2026-05-10T18:08:23
; FORMAT={-:-/ absolute / metric / decimal}
; #@! TF.CreationDate,2026-05-10T18:08:23+02:00
; #@! TF.GenerationSoftware,Kicad,Pcbnew,10.0.1
; #@! TF.FileFunction,Plated,1,2,PTH
FMAT,2
METRIC
; #@! TA.AperFunction,Plated,PTH,ViaDrill
T1C0.300
%
G90
G05
T1
X116.8Y-83.2
X117.75Y-89.4
X117.75Y-90.0
X117.75Y-90.6
X118.475Y-89.4
X118.475Y-90.0
X118.475Y-90.6
X119.2Y-89.4
X119.2Y-90.0
X119.2Y-90.6
X121.477Y-87.0
X123.6Y-83.6
X125.0Y-75.0
X128.5Y-92.325
X128.5Y-93.025
X128.5Y-93.725
X128.5Y-94.425
X129.2Y-92.325
X129.2Y-93.025
X129.2Y-93.725
X129.2Y-94.425
X130.2Y-81.9
X130.2Y-82.5
X130.2Y-83.1
X130.925Y-81.9
X130.925Y-82.5
X130.925Y-83.1
X131.65Y-81.9
X131.65Y-82.5
X131.65Y-83.1
M30
