%TF.GenerationSoftware,KiCad,Pcbnew,10.0.1*%
%TF.CreationDate,2026-05-10T18:08:26+02:00*%
%TF.ProjectId,buckMP1584,6275636b-4d50-4313-9538-342e6b696361,rev?*%
%TF.SameCoordinates,Original*%
%TF.FileFunction,Soldermask,Top*%
%TF.FilePolarity,Negative*%
%FSLAX46Y46*%
G04 Gerber Fmt 4.6, Leading zero omitted, Abs format (unit mm)*
G04 Created by KiCad (PCBNEW 10.0.1) date 2026-05-10 18:08:26*
%MOMM*%
%LPD*%
G01*
G04 APERTURE LIST*
G04 Aperture macros list*
%AMRoundRect*
0 Rectangle with rounded corners*
0 $1 Rounding radius*
0 $2 $3 $4 $5 $6 $7 $8 $9 X,Y pos of 4 corners*
0 Add a 4 corners polygon primitive as box body*
4,1,4,$2,$3,$4,$5,$6,$7,$8,$9,$2,$3,0*
0 Add four circle primitives for the rounded corners*
1,1,$1+$1,$2,$3*
1,1,$1+$1,$4,$5*
1,1,$1+$1,$6,$7*
1,1,$1+$1,$8,$9*
0 Add four rect primitives between the rounded corners*
20,1,$1+$1,$2,$3,$4,$5,0*
20,1,$1+$1,$4,$5,$6,$7,0*
20,1,$1+$1,$6,$7,$8,$9,0*
20,1,$1+$1,$8,$9,$2,$3,0*%
G04 Aperture macros list end*
%ADD10R,1.500000X2.400000*%
%ADD11RoundRect,0.250000X0.412500X0.650000X-0.412500X0.650000X-0.412500X-0.650000X0.412500X-0.650000X0*%
%ADD12R,3.300000X2.300000*%
%ADD13O,0.700000X2.200000*%
%ADD14RoundRect,0.237500X0.237500X-0.250000X0.237500X0.250000X-0.237500X0.250000X-0.237500X-0.250000X0*%
%ADD15RoundRect,0.250000X-0.412500X-0.650000X0.412500X-0.650000X0.412500X0.650000X-0.412500X0.650000X0*%
%ADD16RoundRect,0.500000X1.500000X-0.500000X1.500000X0.500000X-1.500000X0.500000X-1.500000X-0.500000X0*%
%ADD17RoundRect,0.250000X-0.650000X1.500000X-0.650000X-1.500000X0.650000X-1.500000X0.650000X1.500000X0*%
%ADD18RoundRect,0.237500X-0.237500X0.250000X-0.237500X-0.250000X0.237500X-0.250000X0.237500X0.250000X0*%
%ADD19RoundRect,0.237500X0.250000X0.237500X-0.250000X0.237500X-0.250000X-0.237500X0.250000X-0.237500X0*%
%ADD20RoundRect,0.237500X0.237500X-0.300000X0.237500X0.300000X-0.237500X0.300000X-0.237500X-0.300000X0*%
%ADD21RoundRect,0.237500X-0.237500X0.300000X-0.237500X-0.300000X0.237500X-0.300000X0.237500X0.300000X0*%
G04 APERTURE END LIST*
D10*
%TO.C,L1*%
X133780000Y-75900000D03*
X128280000Y-75900000D03*
%TD*%
D11*
%TO.C,C2*%
X130737500Y-87900000D03*
X133862500Y-87900000D03*
%TD*%
%TO.C,C21*%
X130737500Y-90400000D03*
X133862500Y-90400000D03*
%TD*%
D12*
%TO.C,U1*%
X120837500Y-82225000D03*
D13*
X122747500Y-85195000D03*
X121477500Y-85195000D03*
X120207500Y-85195000D03*
X118937500Y-85195000D03*
X118937500Y-79155000D03*
X120207500Y-79155000D03*
X121477500Y-79155000D03*
X122747500Y-79155000D03*
%TD*%
D14*
%TO.C,R2*%
X116637500Y-77387500D03*
X116637500Y-79212500D03*
%TD*%
%TO.C,R4*%
X121837500Y-74887500D03*
X121837500Y-76712500D03*
%TD*%
D15*
%TO.C,C11*%
X124755000Y-90490000D03*
X121630000Y-90490000D03*
%TD*%
D16*
%TO.C,J2*%
X125800000Y-93800000D03*
%TD*%
D15*
%TO.C,C1*%
X124755000Y-87890000D03*
X121630000Y-87890000D03*
%TD*%
D16*
%TO.C,J1*%
X118975000Y-93800000D03*
%TD*%
D17*
%TO.C,D1*%
X127800000Y-87050000D03*
X127800000Y-82050000D03*
%TD*%
D18*
%TO.C,R5*%
X123537500Y-76712500D03*
X123537500Y-74887500D03*
%TD*%
D19*
%TO.C,R6*%
X117907500Y-87460000D03*
X119732500Y-87460000D03*
%TD*%
D14*
%TO.C,R1*%
X116630000Y-80817500D03*
X116630000Y-82642500D03*
%TD*%
D16*
%TO.C,J3*%
X132200000Y-93800000D03*
%TD*%
D20*
%TO.C,C3*%
X120137500Y-74937500D03*
X120137500Y-76662500D03*
%TD*%
D21*
%TO.C,C4*%
X124737500Y-84862500D03*
X124737500Y-83137500D03*
%TD*%
D18*
%TO.C,R3*%
X118437500Y-76712500D03*
X118437500Y-74887500D03*
%TD*%
M02*
