%TF.GenerationSoftware,KiCad,Pcbnew,10.0.1*%
%TF.CreationDate,2026-05-10T18:08:26+02:00*%
%TF.ProjectId,buckMP1584,6275636b-4d50-4313-9538-342e6b696361,rev?*%
%TF.SameCoordinates,Original*%
%TF.FileFunction,Legend,Top*%
%TF.FilePolarity,Positive*%
%FSLAX46Y46*%
G04 Gerber Fmt 4.6, Leading zero omitted, Abs format (unit mm)*
G04 Created by KiCad (PCBNEW 10.0.1) date 2026-05-10 18:08:26*
%MOMM*%
%LPD*%
G01*
G04 APERTURE LIST*
%ADD10C,0.062500*%
%ADD11C,0.150000*%
%ADD12C,0.120000*%
%ADD13C,0.060000*%
%ADD14C,0.100000*%
%ADD15C,0.250000*%
G04 APERTURE END LIST*
D10*
X130325000Y-79478059D02*
X130229762Y-79478059D01*
X130229762Y-79478059D02*
X130182143Y-79501869D01*
X130182143Y-79501869D02*
X130158333Y-79525678D01*
X130158333Y-79525678D02*
X130110714Y-79597107D01*
X130110714Y-79597107D02*
X130086905Y-79692345D01*
X130086905Y-79692345D02*
X130086905Y-79882821D01*
X130086905Y-79882821D02*
X130110714Y-79930440D01*
X130110714Y-79930440D02*
X130134524Y-79954250D01*
X130134524Y-79954250D02*
X130182143Y-79978059D01*
X130182143Y-79978059D02*
X130277381Y-79978059D01*
X130277381Y-79978059D02*
X130325000Y-79954250D01*
X130325000Y-79954250D02*
X130348809Y-79930440D01*
X130348809Y-79930440D02*
X130372619Y-79882821D01*
X130372619Y-79882821D02*
X130372619Y-79763773D01*
X130372619Y-79763773D02*
X130348809Y-79716154D01*
X130348809Y-79716154D02*
X130325000Y-79692345D01*
X130325000Y-79692345D02*
X130277381Y-79668535D01*
X130277381Y-79668535D02*
X130182143Y-79668535D01*
X130182143Y-79668535D02*
X130134524Y-79692345D01*
X130134524Y-79692345D02*
X130110714Y-79716154D01*
X130110714Y-79716154D02*
X130086905Y-79763773D01*
X130586904Y-79930440D02*
X130610714Y-79954250D01*
X130610714Y-79954250D02*
X130586904Y-79978059D01*
X130586904Y-79978059D02*
X130563095Y-79954250D01*
X130563095Y-79954250D02*
X130586904Y-79930440D01*
X130586904Y-79930440D02*
X130586904Y-79978059D01*
X130896428Y-79692345D02*
X130848809Y-79668535D01*
X130848809Y-79668535D02*
X130824999Y-79644726D01*
X130824999Y-79644726D02*
X130801190Y-79597107D01*
X130801190Y-79597107D02*
X130801190Y-79573297D01*
X130801190Y-79573297D02*
X130824999Y-79525678D01*
X130824999Y-79525678D02*
X130848809Y-79501869D01*
X130848809Y-79501869D02*
X130896428Y-79478059D01*
X130896428Y-79478059D02*
X130991666Y-79478059D01*
X130991666Y-79478059D02*
X131039285Y-79501869D01*
X131039285Y-79501869D02*
X131063094Y-79525678D01*
X131063094Y-79525678D02*
X131086904Y-79573297D01*
X131086904Y-79573297D02*
X131086904Y-79597107D01*
X131086904Y-79597107D02*
X131063094Y-79644726D01*
X131063094Y-79644726D02*
X131039285Y-79668535D01*
X131039285Y-79668535D02*
X130991666Y-79692345D01*
X130991666Y-79692345D02*
X130896428Y-79692345D01*
X130896428Y-79692345D02*
X130848809Y-79716154D01*
X130848809Y-79716154D02*
X130824999Y-79739964D01*
X130824999Y-79739964D02*
X130801190Y-79787583D01*
X130801190Y-79787583D02*
X130801190Y-79882821D01*
X130801190Y-79882821D02*
X130824999Y-79930440D01*
X130824999Y-79930440D02*
X130848809Y-79954250D01*
X130848809Y-79954250D02*
X130896428Y-79978059D01*
X130896428Y-79978059D02*
X130991666Y-79978059D01*
X130991666Y-79978059D02*
X131039285Y-79954250D01*
X131039285Y-79954250D02*
X131063094Y-79930440D01*
X131063094Y-79930440D02*
X131086904Y-79882821D01*
X131086904Y-79882821D02*
X131086904Y-79787583D01*
X131086904Y-79787583D02*
X131063094Y-79739964D01*
X131063094Y-79739964D02*
X131039285Y-79716154D01*
X131039285Y-79716154D02*
X130991666Y-79692345D01*
X131515475Y-79644726D02*
X131515475Y-79978059D01*
X131301189Y-79644726D02*
X131301189Y-79906630D01*
X131301189Y-79906630D02*
X131324999Y-79954250D01*
X131324999Y-79954250D02*
X131372618Y-79978059D01*
X131372618Y-79978059D02*
X131444046Y-79978059D01*
X131444046Y-79978059D02*
X131491665Y-79954250D01*
X131491665Y-79954250D02*
X131515475Y-79930440D01*
X131753570Y-79978059D02*
X131753570Y-79478059D01*
X131753570Y-79716154D02*
X132039284Y-79716154D01*
X132039284Y-79978059D02*
X132039284Y-79478059D01*
D11*
X130863333Y-76354819D02*
X130387143Y-76354819D01*
X130387143Y-76354819D02*
X130387143Y-75354819D01*
X131720476Y-76354819D02*
X131149048Y-76354819D01*
X131434762Y-76354819D02*
X131434762Y-75354819D01*
X131434762Y-75354819D02*
X131339524Y-75497676D01*
X131339524Y-75497676D02*
X131244286Y-75592914D01*
X131244286Y-75592914D02*
X131149048Y-75640533D01*
D10*
X131478572Y-85825678D02*
X131502381Y-85801869D01*
X131502381Y-85801869D02*
X131550000Y-85778059D01*
X131550000Y-85778059D02*
X131669048Y-85778059D01*
X131669048Y-85778059D02*
X131716667Y-85801869D01*
X131716667Y-85801869D02*
X131740476Y-85825678D01*
X131740476Y-85825678D02*
X131764286Y-85873297D01*
X131764286Y-85873297D02*
X131764286Y-85920916D01*
X131764286Y-85920916D02*
X131740476Y-85992345D01*
X131740476Y-85992345D02*
X131454762Y-86278059D01*
X131454762Y-86278059D02*
X131764286Y-86278059D01*
X131954762Y-85825678D02*
X131978571Y-85801869D01*
X131978571Y-85801869D02*
X132026190Y-85778059D01*
X132026190Y-85778059D02*
X132145238Y-85778059D01*
X132145238Y-85778059D02*
X132192857Y-85801869D01*
X132192857Y-85801869D02*
X132216666Y-85825678D01*
X132216666Y-85825678D02*
X132240476Y-85873297D01*
X132240476Y-85873297D02*
X132240476Y-85920916D01*
X132240476Y-85920916D02*
X132216666Y-85992345D01*
X132216666Y-85992345D02*
X131930952Y-86278059D01*
X131930952Y-86278059D02*
X132240476Y-86278059D01*
X132669047Y-85944726D02*
X132669047Y-86278059D01*
X132454761Y-85944726D02*
X132454761Y-86206630D01*
X132454761Y-86206630D02*
X132478571Y-86254250D01*
X132478571Y-86254250D02*
X132526190Y-86278059D01*
X132526190Y-86278059D02*
X132597618Y-86278059D01*
X132597618Y-86278059D02*
X132645237Y-86254250D01*
X132645237Y-86254250D02*
X132669047Y-86230440D01*
X133073809Y-86016154D02*
X132907142Y-86016154D01*
X132907142Y-86278059D02*
X132907142Y-85778059D01*
X132907142Y-85778059D02*
X133145237Y-85778059D01*
D12*
X132166667Y-88187664D02*
X132128571Y-88225760D01*
X132128571Y-88225760D02*
X132014286Y-88263855D01*
X132014286Y-88263855D02*
X131938095Y-88263855D01*
X131938095Y-88263855D02*
X131823809Y-88225760D01*
X131823809Y-88225760D02*
X131747619Y-88149569D01*
X131747619Y-88149569D02*
X131709524Y-88073379D01*
X131709524Y-88073379D02*
X131671428Y-87920998D01*
X131671428Y-87920998D02*
X131671428Y-87806712D01*
X131671428Y-87806712D02*
X131709524Y-87654331D01*
X131709524Y-87654331D02*
X131747619Y-87578140D01*
X131747619Y-87578140D02*
X131823809Y-87501950D01*
X131823809Y-87501950D02*
X131938095Y-87463855D01*
X131938095Y-87463855D02*
X132014286Y-87463855D01*
X132014286Y-87463855D02*
X132128571Y-87501950D01*
X132128571Y-87501950D02*
X132166667Y-87540045D01*
X132471428Y-87540045D02*
X132509524Y-87501950D01*
X132509524Y-87501950D02*
X132585714Y-87463855D01*
X132585714Y-87463855D02*
X132776190Y-87463855D01*
X132776190Y-87463855D02*
X132852381Y-87501950D01*
X132852381Y-87501950D02*
X132890476Y-87540045D01*
X132890476Y-87540045D02*
X132928571Y-87616236D01*
X132928571Y-87616236D02*
X132928571Y-87692426D01*
X132928571Y-87692426D02*
X132890476Y-87806712D01*
X132890476Y-87806712D02*
X132433333Y-88263855D01*
X132433333Y-88263855D02*
X132928571Y-88263855D01*
D10*
X129175678Y-91221427D02*
X129151869Y-91197618D01*
X129151869Y-91197618D02*
X129128059Y-91149999D01*
X129128059Y-91149999D02*
X129128059Y-91030951D01*
X129128059Y-91030951D02*
X129151869Y-90983332D01*
X129151869Y-90983332D02*
X129175678Y-90959523D01*
X129175678Y-90959523D02*
X129223297Y-90935713D01*
X129223297Y-90935713D02*
X129270916Y-90935713D01*
X129270916Y-90935713D02*
X129342345Y-90959523D01*
X129342345Y-90959523D02*
X129628059Y-91245237D01*
X129628059Y-91245237D02*
X129628059Y-90935713D01*
X129175678Y-90745237D02*
X129151869Y-90721428D01*
X129151869Y-90721428D02*
X129128059Y-90673809D01*
X129128059Y-90673809D02*
X129128059Y-90554761D01*
X129128059Y-90554761D02*
X129151869Y-90507142D01*
X129151869Y-90507142D02*
X129175678Y-90483333D01*
X129175678Y-90483333D02*
X129223297Y-90459523D01*
X129223297Y-90459523D02*
X129270916Y-90459523D01*
X129270916Y-90459523D02*
X129342345Y-90483333D01*
X129342345Y-90483333D02*
X129628059Y-90769047D01*
X129628059Y-90769047D02*
X129628059Y-90459523D01*
X129294726Y-90030952D02*
X129628059Y-90030952D01*
X129294726Y-90245238D02*
X129556630Y-90245238D01*
X129556630Y-90245238D02*
X129604250Y-90221428D01*
X129604250Y-90221428D02*
X129628059Y-90173809D01*
X129628059Y-90173809D02*
X129628059Y-90102381D01*
X129628059Y-90102381D02*
X129604250Y-90054762D01*
X129604250Y-90054762D02*
X129580440Y-90030952D01*
X129366154Y-89626190D02*
X129366154Y-89792857D01*
X129628059Y-89792857D02*
X129128059Y-89792857D01*
X129128059Y-89792857D02*
X129128059Y-89554762D01*
D12*
X131785714Y-90687664D02*
X131747618Y-90725760D01*
X131747618Y-90725760D02*
X131633333Y-90763855D01*
X131633333Y-90763855D02*
X131557142Y-90763855D01*
X131557142Y-90763855D02*
X131442856Y-90725760D01*
X131442856Y-90725760D02*
X131366666Y-90649569D01*
X131366666Y-90649569D02*
X131328571Y-90573379D01*
X131328571Y-90573379D02*
X131290475Y-90420998D01*
X131290475Y-90420998D02*
X131290475Y-90306712D01*
X131290475Y-90306712D02*
X131328571Y-90154331D01*
X131328571Y-90154331D02*
X131366666Y-90078140D01*
X131366666Y-90078140D02*
X131442856Y-90001950D01*
X131442856Y-90001950D02*
X131557142Y-89963855D01*
X131557142Y-89963855D02*
X131633333Y-89963855D01*
X131633333Y-89963855D02*
X131747618Y-90001950D01*
X131747618Y-90001950D02*
X131785714Y-90040045D01*
X132090475Y-90040045D02*
X132128571Y-90001950D01*
X132128571Y-90001950D02*
X132204761Y-89963855D01*
X132204761Y-89963855D02*
X132395237Y-89963855D01*
X132395237Y-89963855D02*
X132471428Y-90001950D01*
X132471428Y-90001950D02*
X132509523Y-90040045D01*
X132509523Y-90040045D02*
X132547618Y-90116236D01*
X132547618Y-90116236D02*
X132547618Y-90192426D01*
X132547618Y-90192426D02*
X132509523Y-90306712D01*
X132509523Y-90306712D02*
X132052380Y-90763855D01*
X132052380Y-90763855D02*
X132547618Y-90763855D01*
X133309523Y-90763855D02*
X132852380Y-90763855D01*
X133080952Y-90763855D02*
X133080952Y-89963855D01*
X133080952Y-89963855D02*
X133004761Y-90078140D01*
X133004761Y-90078140D02*
X132928571Y-90154331D01*
X132928571Y-90154331D02*
X132852380Y-90192426D01*
D10*
X120479047Y-80408059D02*
X120479047Y-80812821D01*
X120479047Y-80812821D02*
X120502857Y-80860440D01*
X120502857Y-80860440D02*
X120526666Y-80884250D01*
X120526666Y-80884250D02*
X120574285Y-80908059D01*
X120574285Y-80908059D02*
X120669523Y-80908059D01*
X120669523Y-80908059D02*
X120717142Y-80884250D01*
X120717142Y-80884250D02*
X120740952Y-80860440D01*
X120740952Y-80860440D02*
X120764761Y-80812821D01*
X120764761Y-80812821D02*
X120764761Y-80408059D01*
X121264762Y-80908059D02*
X120979048Y-80908059D01*
X121121905Y-80908059D02*
X121121905Y-80408059D01*
X121121905Y-80408059D02*
X121074286Y-80479488D01*
X121074286Y-80479488D02*
X121026667Y-80527107D01*
X121026667Y-80527107D02*
X120979048Y-80550916D01*
X116532226Y-76202379D02*
X116865559Y-76202379D01*
X116341750Y-76321427D02*
X116698892Y-76440474D01*
X116698892Y-76440474D02*
X116698892Y-76130951D01*
X116365559Y-75845237D02*
X116365559Y-75797618D01*
X116365559Y-75797618D02*
X116389369Y-75749999D01*
X116389369Y-75749999D02*
X116413178Y-75726189D01*
X116413178Y-75726189D02*
X116460797Y-75702380D01*
X116460797Y-75702380D02*
X116556035Y-75678570D01*
X116556035Y-75678570D02*
X116675083Y-75678570D01*
X116675083Y-75678570D02*
X116770321Y-75702380D01*
X116770321Y-75702380D02*
X116817940Y-75726189D01*
X116817940Y-75726189D02*
X116841750Y-75749999D01*
X116841750Y-75749999D02*
X116865559Y-75797618D01*
X116865559Y-75797618D02*
X116865559Y-75845237D01*
X116865559Y-75845237D02*
X116841750Y-75892856D01*
X116841750Y-75892856D02*
X116817940Y-75916665D01*
X116817940Y-75916665D02*
X116770321Y-75940475D01*
X116770321Y-75940475D02*
X116675083Y-75964284D01*
X116675083Y-75964284D02*
X116556035Y-75964284D01*
X116556035Y-75964284D02*
X116460797Y-75940475D01*
X116460797Y-75940475D02*
X116413178Y-75916665D01*
X116413178Y-75916665D02*
X116389369Y-75892856D01*
X116389369Y-75892856D02*
X116365559Y-75845237D01*
X116817940Y-75464285D02*
X116841750Y-75440475D01*
X116841750Y-75440475D02*
X116865559Y-75464285D01*
X116865559Y-75464285D02*
X116841750Y-75488094D01*
X116841750Y-75488094D02*
X116817940Y-75464285D01*
X116817940Y-75464285D02*
X116865559Y-75464285D01*
X116413178Y-75249999D02*
X116389369Y-75226190D01*
X116389369Y-75226190D02*
X116365559Y-75178571D01*
X116365559Y-75178571D02*
X116365559Y-75059523D01*
X116365559Y-75059523D02*
X116389369Y-75011904D01*
X116389369Y-75011904D02*
X116413178Y-74988095D01*
X116413178Y-74988095D02*
X116460797Y-74964285D01*
X116460797Y-74964285D02*
X116508416Y-74964285D01*
X116508416Y-74964285D02*
X116579845Y-74988095D01*
X116579845Y-74988095D02*
X116865559Y-75273809D01*
X116865559Y-75273809D02*
X116865559Y-74964285D01*
X116865559Y-74750000D02*
X116365559Y-74750000D01*
X116675083Y-74702381D02*
X116865559Y-74559524D01*
X116532226Y-74559524D02*
X116722702Y-74750000D01*
D13*
X116819427Y-78366666D02*
X116628951Y-78499999D01*
X116819427Y-78595237D02*
X116419427Y-78595237D01*
X116419427Y-78595237D02*
X116419427Y-78442856D01*
X116419427Y-78442856D02*
X116438475Y-78404761D01*
X116438475Y-78404761D02*
X116457522Y-78385714D01*
X116457522Y-78385714D02*
X116495618Y-78366666D01*
X116495618Y-78366666D02*
X116552760Y-78366666D01*
X116552760Y-78366666D02*
X116590856Y-78385714D01*
X116590856Y-78385714D02*
X116609903Y-78404761D01*
X116609903Y-78404761D02*
X116628951Y-78442856D01*
X116628951Y-78442856D02*
X116628951Y-78595237D01*
X116457522Y-78214285D02*
X116438475Y-78195237D01*
X116438475Y-78195237D02*
X116419427Y-78157142D01*
X116419427Y-78157142D02*
X116419427Y-78061904D01*
X116419427Y-78061904D02*
X116438475Y-78023809D01*
X116438475Y-78023809D02*
X116457522Y-78004761D01*
X116457522Y-78004761D02*
X116495618Y-77985714D01*
X116495618Y-77985714D02*
X116533713Y-77985714D01*
X116533713Y-77985714D02*
X116590856Y-78004761D01*
X116590856Y-78004761D02*
X116819427Y-78233333D01*
X116819427Y-78233333D02*
X116819427Y-77985714D01*
D10*
X121613178Y-73940474D02*
X121589369Y-73916665D01*
X121589369Y-73916665D02*
X121565559Y-73869046D01*
X121565559Y-73869046D02*
X121565559Y-73749998D01*
X121565559Y-73749998D02*
X121589369Y-73702379D01*
X121589369Y-73702379D02*
X121613178Y-73678570D01*
X121613178Y-73678570D02*
X121660797Y-73654760D01*
X121660797Y-73654760D02*
X121708416Y-73654760D01*
X121708416Y-73654760D02*
X121779845Y-73678570D01*
X121779845Y-73678570D02*
X122065559Y-73964284D01*
X122065559Y-73964284D02*
X122065559Y-73654760D01*
X121732226Y-73226189D02*
X122065559Y-73226189D01*
X121541750Y-73345237D02*
X121898892Y-73464284D01*
X121898892Y-73464284D02*
X121898892Y-73154761D01*
X122017940Y-72964285D02*
X122041750Y-72940475D01*
X122041750Y-72940475D02*
X122065559Y-72964285D01*
X122065559Y-72964285D02*
X122041750Y-72988094D01*
X122041750Y-72988094D02*
X122017940Y-72964285D01*
X122017940Y-72964285D02*
X122065559Y-72964285D01*
X122065559Y-72702380D02*
X122065559Y-72607142D01*
X122065559Y-72607142D02*
X122041750Y-72559523D01*
X122041750Y-72559523D02*
X122017940Y-72535714D01*
X122017940Y-72535714D02*
X121946511Y-72488095D01*
X121946511Y-72488095D02*
X121851273Y-72464285D01*
X121851273Y-72464285D02*
X121660797Y-72464285D01*
X121660797Y-72464285D02*
X121613178Y-72488095D01*
X121613178Y-72488095D02*
X121589369Y-72511904D01*
X121589369Y-72511904D02*
X121565559Y-72559523D01*
X121565559Y-72559523D02*
X121565559Y-72654761D01*
X121565559Y-72654761D02*
X121589369Y-72702380D01*
X121589369Y-72702380D02*
X121613178Y-72726190D01*
X121613178Y-72726190D02*
X121660797Y-72749999D01*
X121660797Y-72749999D02*
X121779845Y-72749999D01*
X121779845Y-72749999D02*
X121827464Y-72726190D01*
X121827464Y-72726190D02*
X121851273Y-72702380D01*
X121851273Y-72702380D02*
X121875083Y-72654761D01*
X121875083Y-72654761D02*
X121875083Y-72559523D01*
X121875083Y-72559523D02*
X121851273Y-72511904D01*
X121851273Y-72511904D02*
X121827464Y-72488095D01*
X121827464Y-72488095D02*
X121779845Y-72464285D01*
X122065559Y-72250000D02*
X121565559Y-72250000D01*
X121875083Y-72202381D02*
X122065559Y-72059524D01*
X121732226Y-72059524D02*
X121922702Y-72250000D01*
D13*
X122019427Y-75866666D02*
X121828951Y-75999999D01*
X122019427Y-76095237D02*
X121619427Y-76095237D01*
X121619427Y-76095237D02*
X121619427Y-75942856D01*
X121619427Y-75942856D02*
X121638475Y-75904761D01*
X121638475Y-75904761D02*
X121657522Y-75885714D01*
X121657522Y-75885714D02*
X121695618Y-75866666D01*
X121695618Y-75866666D02*
X121752760Y-75866666D01*
X121752760Y-75866666D02*
X121790856Y-75885714D01*
X121790856Y-75885714D02*
X121809903Y-75904761D01*
X121809903Y-75904761D02*
X121828951Y-75942856D01*
X121828951Y-75942856D02*
X121828951Y-76095237D01*
X121752760Y-75523809D02*
X122019427Y-75523809D01*
X121600380Y-75619047D02*
X121886094Y-75714285D01*
X121886094Y-75714285D02*
X121886094Y-75466666D01*
D10*
X126219286Y-90718059D02*
X125933572Y-90718059D01*
X126076429Y-90718059D02*
X126076429Y-90218059D01*
X126076429Y-90218059D02*
X126028810Y-90289488D01*
X126028810Y-90289488D02*
X125981191Y-90337107D01*
X125981191Y-90337107D02*
X125933572Y-90360916D01*
X126528809Y-90218059D02*
X126576428Y-90218059D01*
X126576428Y-90218059D02*
X126624047Y-90241869D01*
X126624047Y-90241869D02*
X126647857Y-90265678D01*
X126647857Y-90265678D02*
X126671666Y-90313297D01*
X126671666Y-90313297D02*
X126695476Y-90408535D01*
X126695476Y-90408535D02*
X126695476Y-90527583D01*
X126695476Y-90527583D02*
X126671666Y-90622821D01*
X126671666Y-90622821D02*
X126647857Y-90670440D01*
X126647857Y-90670440D02*
X126624047Y-90694250D01*
X126624047Y-90694250D02*
X126576428Y-90718059D01*
X126576428Y-90718059D02*
X126528809Y-90718059D01*
X126528809Y-90718059D02*
X126481190Y-90694250D01*
X126481190Y-90694250D02*
X126457381Y-90670440D01*
X126457381Y-90670440D02*
X126433571Y-90622821D01*
X126433571Y-90622821D02*
X126409762Y-90527583D01*
X126409762Y-90527583D02*
X126409762Y-90408535D01*
X126409762Y-90408535D02*
X126433571Y-90313297D01*
X126433571Y-90313297D02*
X126457381Y-90265678D01*
X126457381Y-90265678D02*
X126481190Y-90241869D01*
X126481190Y-90241869D02*
X126528809Y-90218059D01*
X127124047Y-90384726D02*
X127124047Y-90718059D01*
X126909761Y-90384726D02*
X126909761Y-90646630D01*
X126909761Y-90646630D02*
X126933571Y-90694250D01*
X126933571Y-90694250D02*
X126981190Y-90718059D01*
X126981190Y-90718059D02*
X127052618Y-90718059D01*
X127052618Y-90718059D02*
X127100237Y-90694250D01*
X127100237Y-90694250D02*
X127124047Y-90670440D01*
X127528809Y-90456154D02*
X127362142Y-90456154D01*
X127362142Y-90718059D02*
X127362142Y-90218059D01*
X127362142Y-90218059D02*
X127600237Y-90218059D01*
D12*
X122678214Y-90777664D02*
X122640118Y-90815760D01*
X122640118Y-90815760D02*
X122525833Y-90853855D01*
X122525833Y-90853855D02*
X122449642Y-90853855D01*
X122449642Y-90853855D02*
X122335356Y-90815760D01*
X122335356Y-90815760D02*
X122259166Y-90739569D01*
X122259166Y-90739569D02*
X122221071Y-90663379D01*
X122221071Y-90663379D02*
X122182975Y-90510998D01*
X122182975Y-90510998D02*
X122182975Y-90396712D01*
X122182975Y-90396712D02*
X122221071Y-90244331D01*
X122221071Y-90244331D02*
X122259166Y-90168140D01*
X122259166Y-90168140D02*
X122335356Y-90091950D01*
X122335356Y-90091950D02*
X122449642Y-90053855D01*
X122449642Y-90053855D02*
X122525833Y-90053855D01*
X122525833Y-90053855D02*
X122640118Y-90091950D01*
X122640118Y-90091950D02*
X122678214Y-90130045D01*
X123440118Y-90853855D02*
X122982975Y-90853855D01*
X123211547Y-90853855D02*
X123211547Y-90053855D01*
X123211547Y-90053855D02*
X123135356Y-90168140D01*
X123135356Y-90168140D02*
X123059166Y-90244331D01*
X123059166Y-90244331D02*
X122982975Y-90282426D01*
X124202023Y-90853855D02*
X123744880Y-90853855D01*
X123973452Y-90853855D02*
X123973452Y-90053855D01*
X123973452Y-90053855D02*
X123897261Y-90168140D01*
X123897261Y-90168140D02*
X123821071Y-90244331D01*
X123821071Y-90244331D02*
X123744880Y-90282426D01*
D10*
X125419047Y-91951869D02*
X125371428Y-91928059D01*
X125371428Y-91928059D02*
X125299999Y-91928059D01*
X125299999Y-91928059D02*
X125228571Y-91951869D01*
X125228571Y-91951869D02*
X125180952Y-91999488D01*
X125180952Y-91999488D02*
X125157142Y-92047107D01*
X125157142Y-92047107D02*
X125133333Y-92142345D01*
X125133333Y-92142345D02*
X125133333Y-92213773D01*
X125133333Y-92213773D02*
X125157142Y-92309011D01*
X125157142Y-92309011D02*
X125180952Y-92356630D01*
X125180952Y-92356630D02*
X125228571Y-92404250D01*
X125228571Y-92404250D02*
X125299999Y-92428059D01*
X125299999Y-92428059D02*
X125347618Y-92428059D01*
X125347618Y-92428059D02*
X125419047Y-92404250D01*
X125419047Y-92404250D02*
X125442856Y-92380440D01*
X125442856Y-92380440D02*
X125442856Y-92213773D01*
X125442856Y-92213773D02*
X125347618Y-92213773D01*
X125657142Y-92428059D02*
X125657142Y-91928059D01*
X125657142Y-91928059D02*
X125942856Y-92428059D01*
X125942856Y-92428059D02*
X125942856Y-91928059D01*
X126180952Y-92428059D02*
X126180952Y-91928059D01*
X126180952Y-91928059D02*
X126300000Y-91928059D01*
X126300000Y-91928059D02*
X126371428Y-91951869D01*
X126371428Y-91951869D02*
X126419047Y-91999488D01*
X126419047Y-91999488D02*
X126442857Y-92047107D01*
X126442857Y-92047107D02*
X126466666Y-92142345D01*
X126466666Y-92142345D02*
X126466666Y-92213773D01*
X126466666Y-92213773D02*
X126442857Y-92309011D01*
X126442857Y-92309011D02*
X126419047Y-92356630D01*
X126419047Y-92356630D02*
X126371428Y-92404250D01*
X126371428Y-92404250D02*
X126300000Y-92428059D01*
X126300000Y-92428059D02*
X126180952Y-92428059D01*
D11*
X125254819Y-94133333D02*
X125969104Y-94133333D01*
X125969104Y-94133333D02*
X126111961Y-94180952D01*
X126111961Y-94180952D02*
X126207200Y-94276190D01*
X126207200Y-94276190D02*
X126254819Y-94419047D01*
X126254819Y-94419047D02*
X126254819Y-94514285D01*
X125350057Y-93704761D02*
X125302438Y-93657142D01*
X125302438Y-93657142D02*
X125254819Y-93561904D01*
X125254819Y-93561904D02*
X125254819Y-93323809D01*
X125254819Y-93323809D02*
X125302438Y-93228571D01*
X125302438Y-93228571D02*
X125350057Y-93180952D01*
X125350057Y-93180952D02*
X125445295Y-93133333D01*
X125445295Y-93133333D02*
X125540533Y-93133333D01*
X125540533Y-93133333D02*
X125683390Y-93180952D01*
X125683390Y-93180952D02*
X126254819Y-93752380D01*
X126254819Y-93752380D02*
X126254819Y-93133333D01*
D10*
X123819286Y-86518059D02*
X123533572Y-86518059D01*
X123676429Y-86518059D02*
X123676429Y-86018059D01*
X123676429Y-86018059D02*
X123628810Y-86089488D01*
X123628810Y-86089488D02*
X123581191Y-86137107D01*
X123581191Y-86137107D02*
X123533572Y-86160916D01*
X124128809Y-86018059D02*
X124176428Y-86018059D01*
X124176428Y-86018059D02*
X124224047Y-86041869D01*
X124224047Y-86041869D02*
X124247857Y-86065678D01*
X124247857Y-86065678D02*
X124271666Y-86113297D01*
X124271666Y-86113297D02*
X124295476Y-86208535D01*
X124295476Y-86208535D02*
X124295476Y-86327583D01*
X124295476Y-86327583D02*
X124271666Y-86422821D01*
X124271666Y-86422821D02*
X124247857Y-86470440D01*
X124247857Y-86470440D02*
X124224047Y-86494250D01*
X124224047Y-86494250D02*
X124176428Y-86518059D01*
X124176428Y-86518059D02*
X124128809Y-86518059D01*
X124128809Y-86518059D02*
X124081190Y-86494250D01*
X124081190Y-86494250D02*
X124057381Y-86470440D01*
X124057381Y-86470440D02*
X124033571Y-86422821D01*
X124033571Y-86422821D02*
X124009762Y-86327583D01*
X124009762Y-86327583D02*
X124009762Y-86208535D01*
X124009762Y-86208535D02*
X124033571Y-86113297D01*
X124033571Y-86113297D02*
X124057381Y-86065678D01*
X124057381Y-86065678D02*
X124081190Y-86041869D01*
X124081190Y-86041869D02*
X124128809Y-86018059D01*
X124724047Y-86184726D02*
X124724047Y-86518059D01*
X124509761Y-86184726D02*
X124509761Y-86446630D01*
X124509761Y-86446630D02*
X124533571Y-86494250D01*
X124533571Y-86494250D02*
X124581190Y-86518059D01*
X124581190Y-86518059D02*
X124652618Y-86518059D01*
X124652618Y-86518059D02*
X124700237Y-86494250D01*
X124700237Y-86494250D02*
X124724047Y-86470440D01*
X125128809Y-86256154D02*
X124962142Y-86256154D01*
X124962142Y-86518059D02*
X124962142Y-86018059D01*
X124962142Y-86018059D02*
X125200237Y-86018059D01*
D12*
X123059167Y-88177664D02*
X123021071Y-88215760D01*
X123021071Y-88215760D02*
X122906786Y-88253855D01*
X122906786Y-88253855D02*
X122830595Y-88253855D01*
X122830595Y-88253855D02*
X122716309Y-88215760D01*
X122716309Y-88215760D02*
X122640119Y-88139569D01*
X122640119Y-88139569D02*
X122602024Y-88063379D01*
X122602024Y-88063379D02*
X122563928Y-87910998D01*
X122563928Y-87910998D02*
X122563928Y-87796712D01*
X122563928Y-87796712D02*
X122602024Y-87644331D01*
X122602024Y-87644331D02*
X122640119Y-87568140D01*
X122640119Y-87568140D02*
X122716309Y-87491950D01*
X122716309Y-87491950D02*
X122830595Y-87453855D01*
X122830595Y-87453855D02*
X122906786Y-87453855D01*
X122906786Y-87453855D02*
X123021071Y-87491950D01*
X123021071Y-87491950D02*
X123059167Y-87530045D01*
X123821071Y-88253855D02*
X123363928Y-88253855D01*
X123592500Y-88253855D02*
X123592500Y-87453855D01*
X123592500Y-87453855D02*
X123516309Y-87568140D01*
X123516309Y-87568140D02*
X123440119Y-87644331D01*
X123440119Y-87644331D02*
X123363928Y-87682426D01*
D10*
X118427381Y-91928059D02*
X118594047Y-92428059D01*
X118594047Y-92428059D02*
X118760714Y-91928059D01*
X118927380Y-92428059D02*
X118927380Y-91928059D01*
X119165475Y-92428059D02*
X119165475Y-91928059D01*
X119165475Y-91928059D02*
X119451189Y-92428059D01*
X119451189Y-92428059D02*
X119451189Y-91928059D01*
D11*
X118429819Y-94133333D02*
X119144104Y-94133333D01*
X119144104Y-94133333D02*
X119286961Y-94180952D01*
X119286961Y-94180952D02*
X119382200Y-94276190D01*
X119382200Y-94276190D02*
X119429819Y-94419047D01*
X119429819Y-94419047D02*
X119429819Y-94514285D01*
X119429819Y-93133333D02*
X119429819Y-93704761D01*
X119429819Y-93419047D02*
X118429819Y-93419047D01*
X118429819Y-93419047D02*
X118572676Y-93514285D01*
X118572676Y-93514285D02*
X118667914Y-93609523D01*
X118667914Y-93609523D02*
X118715533Y-93704761D01*
X127873866Y-84811904D02*
X127826247Y-84764285D01*
X127826247Y-84764285D02*
X127778628Y-84669047D01*
X127778628Y-84669047D02*
X127873866Y-84478571D01*
X127873866Y-84478571D02*
X127826247Y-84383333D01*
X127826247Y-84383333D02*
X127778628Y-84335714D01*
X131454819Y-85288094D02*
X130454819Y-85288094D01*
X130454819Y-85288094D02*
X130454819Y-85049999D01*
X130454819Y-85049999D02*
X130502438Y-84907142D01*
X130502438Y-84907142D02*
X130597676Y-84811904D01*
X130597676Y-84811904D02*
X130692914Y-84764285D01*
X130692914Y-84764285D02*
X130883390Y-84716666D01*
X130883390Y-84716666D02*
X131026247Y-84716666D01*
X131026247Y-84716666D02*
X131216723Y-84764285D01*
X131216723Y-84764285D02*
X131311961Y-84811904D01*
X131311961Y-84811904D02*
X131407200Y-84907142D01*
X131407200Y-84907142D02*
X131454819Y-85049999D01*
X131454819Y-85049999D02*
X131454819Y-85288094D01*
X131454819Y-83764285D02*
X131454819Y-84335713D01*
X131454819Y-84049999D02*
X130454819Y-84049999D01*
X130454819Y-84049999D02*
X130597676Y-84145237D01*
X130597676Y-84145237D02*
X130692914Y-84240475D01*
X130692914Y-84240475D02*
X130740533Y-84335713D01*
D10*
X123765559Y-73735713D02*
X123765559Y-74021427D01*
X123765559Y-73878570D02*
X123265559Y-73878570D01*
X123265559Y-73878570D02*
X123336988Y-73926189D01*
X123336988Y-73926189D02*
X123384607Y-73973808D01*
X123384607Y-73973808D02*
X123408416Y-74021427D01*
X123265559Y-73426190D02*
X123265559Y-73378571D01*
X123265559Y-73378571D02*
X123289369Y-73330952D01*
X123289369Y-73330952D02*
X123313178Y-73307142D01*
X123313178Y-73307142D02*
X123360797Y-73283333D01*
X123360797Y-73283333D02*
X123456035Y-73259523D01*
X123456035Y-73259523D02*
X123575083Y-73259523D01*
X123575083Y-73259523D02*
X123670321Y-73283333D01*
X123670321Y-73283333D02*
X123717940Y-73307142D01*
X123717940Y-73307142D02*
X123741750Y-73330952D01*
X123741750Y-73330952D02*
X123765559Y-73378571D01*
X123765559Y-73378571D02*
X123765559Y-73426190D01*
X123765559Y-73426190D02*
X123741750Y-73473809D01*
X123741750Y-73473809D02*
X123717940Y-73497618D01*
X123717940Y-73497618D02*
X123670321Y-73521428D01*
X123670321Y-73521428D02*
X123575083Y-73545237D01*
X123575083Y-73545237D02*
X123456035Y-73545237D01*
X123456035Y-73545237D02*
X123360797Y-73521428D01*
X123360797Y-73521428D02*
X123313178Y-73497618D01*
X123313178Y-73497618D02*
X123289369Y-73473809D01*
X123289369Y-73473809D02*
X123265559Y-73426190D01*
X123265559Y-72950000D02*
X123265559Y-72902381D01*
X123265559Y-72902381D02*
X123289369Y-72854762D01*
X123289369Y-72854762D02*
X123313178Y-72830952D01*
X123313178Y-72830952D02*
X123360797Y-72807143D01*
X123360797Y-72807143D02*
X123456035Y-72783333D01*
X123456035Y-72783333D02*
X123575083Y-72783333D01*
X123575083Y-72783333D02*
X123670321Y-72807143D01*
X123670321Y-72807143D02*
X123717940Y-72830952D01*
X123717940Y-72830952D02*
X123741750Y-72854762D01*
X123741750Y-72854762D02*
X123765559Y-72902381D01*
X123765559Y-72902381D02*
X123765559Y-72950000D01*
X123765559Y-72950000D02*
X123741750Y-72997619D01*
X123741750Y-72997619D02*
X123717940Y-73021428D01*
X123717940Y-73021428D02*
X123670321Y-73045238D01*
X123670321Y-73045238D02*
X123575083Y-73069047D01*
X123575083Y-73069047D02*
X123456035Y-73069047D01*
X123456035Y-73069047D02*
X123360797Y-73045238D01*
X123360797Y-73045238D02*
X123313178Y-73021428D01*
X123313178Y-73021428D02*
X123289369Y-72997619D01*
X123289369Y-72997619D02*
X123265559Y-72950000D01*
X123765559Y-72569048D02*
X123265559Y-72569048D01*
X123575083Y-72521429D02*
X123765559Y-72378572D01*
X123432226Y-72378572D02*
X123622702Y-72569048D01*
D13*
X123719427Y-75866666D02*
X123528951Y-75999999D01*
X123719427Y-76095237D02*
X123319427Y-76095237D01*
X123319427Y-76095237D02*
X123319427Y-75942856D01*
X123319427Y-75942856D02*
X123338475Y-75904761D01*
X123338475Y-75904761D02*
X123357522Y-75885714D01*
X123357522Y-75885714D02*
X123395618Y-75866666D01*
X123395618Y-75866666D02*
X123452760Y-75866666D01*
X123452760Y-75866666D02*
X123490856Y-75885714D01*
X123490856Y-75885714D02*
X123509903Y-75904761D01*
X123509903Y-75904761D02*
X123528951Y-75942856D01*
X123528951Y-75942856D02*
X123528951Y-76095237D01*
X123319427Y-75504761D02*
X123319427Y-75695237D01*
X123319427Y-75695237D02*
X123509903Y-75714285D01*
X123509903Y-75714285D02*
X123490856Y-75695237D01*
X123490856Y-75695237D02*
X123471808Y-75657142D01*
X123471808Y-75657142D02*
X123471808Y-75561904D01*
X123471808Y-75561904D02*
X123490856Y-75523809D01*
X123490856Y-75523809D02*
X123509903Y-75504761D01*
X123509903Y-75504761D02*
X123547999Y-75485714D01*
X123547999Y-75485714D02*
X123643237Y-75485714D01*
X123643237Y-75485714D02*
X123681332Y-75504761D01*
X123681332Y-75504761D02*
X123700380Y-75523809D01*
X123700380Y-75523809D02*
X123719427Y-75561904D01*
X123719427Y-75561904D02*
X123719427Y-75657142D01*
X123719427Y-75657142D02*
X123700380Y-75695237D01*
X123700380Y-75695237D02*
X123681332Y-75714285D01*
D10*
X116575678Y-88281427D02*
X116551869Y-88257618D01*
X116551869Y-88257618D02*
X116528059Y-88209999D01*
X116528059Y-88209999D02*
X116528059Y-88090951D01*
X116528059Y-88090951D02*
X116551869Y-88043332D01*
X116551869Y-88043332D02*
X116575678Y-88019523D01*
X116575678Y-88019523D02*
X116623297Y-87995713D01*
X116623297Y-87995713D02*
X116670916Y-87995713D01*
X116670916Y-87995713D02*
X116742345Y-88019523D01*
X116742345Y-88019523D02*
X117028059Y-88305237D01*
X117028059Y-88305237D02*
X117028059Y-87995713D01*
X116528059Y-87686190D02*
X116528059Y-87638571D01*
X116528059Y-87638571D02*
X116551869Y-87590952D01*
X116551869Y-87590952D02*
X116575678Y-87567142D01*
X116575678Y-87567142D02*
X116623297Y-87543333D01*
X116623297Y-87543333D02*
X116718535Y-87519523D01*
X116718535Y-87519523D02*
X116837583Y-87519523D01*
X116837583Y-87519523D02*
X116932821Y-87543333D01*
X116932821Y-87543333D02*
X116980440Y-87567142D01*
X116980440Y-87567142D02*
X117004250Y-87590952D01*
X117004250Y-87590952D02*
X117028059Y-87638571D01*
X117028059Y-87638571D02*
X117028059Y-87686190D01*
X117028059Y-87686190D02*
X117004250Y-87733809D01*
X117004250Y-87733809D02*
X116980440Y-87757618D01*
X116980440Y-87757618D02*
X116932821Y-87781428D01*
X116932821Y-87781428D02*
X116837583Y-87805237D01*
X116837583Y-87805237D02*
X116718535Y-87805237D01*
X116718535Y-87805237D02*
X116623297Y-87781428D01*
X116623297Y-87781428D02*
X116575678Y-87757618D01*
X116575678Y-87757618D02*
X116551869Y-87733809D01*
X116551869Y-87733809D02*
X116528059Y-87686190D01*
X116528059Y-87210000D02*
X116528059Y-87162381D01*
X116528059Y-87162381D02*
X116551869Y-87114762D01*
X116551869Y-87114762D02*
X116575678Y-87090952D01*
X116575678Y-87090952D02*
X116623297Y-87067143D01*
X116623297Y-87067143D02*
X116718535Y-87043333D01*
X116718535Y-87043333D02*
X116837583Y-87043333D01*
X116837583Y-87043333D02*
X116932821Y-87067143D01*
X116932821Y-87067143D02*
X116980440Y-87090952D01*
X116980440Y-87090952D02*
X117004250Y-87114762D01*
X117004250Y-87114762D02*
X117028059Y-87162381D01*
X117028059Y-87162381D02*
X117028059Y-87210000D01*
X117028059Y-87210000D02*
X117004250Y-87257619D01*
X117004250Y-87257619D02*
X116980440Y-87281428D01*
X116980440Y-87281428D02*
X116932821Y-87305238D01*
X116932821Y-87305238D02*
X116837583Y-87329047D01*
X116837583Y-87329047D02*
X116718535Y-87329047D01*
X116718535Y-87329047D02*
X116623297Y-87305238D01*
X116623297Y-87305238D02*
X116575678Y-87281428D01*
X116575678Y-87281428D02*
X116551869Y-87257619D01*
X116551869Y-87257619D02*
X116528059Y-87210000D01*
X117028059Y-86829048D02*
X116528059Y-86829048D01*
X116837583Y-86781429D02*
X117028059Y-86638572D01*
X116694726Y-86638572D02*
X116885202Y-86829048D01*
D13*
X118753333Y-87641927D02*
X118620000Y-87451451D01*
X118524762Y-87641927D02*
X118524762Y-87241927D01*
X118524762Y-87241927D02*
X118677143Y-87241927D01*
X118677143Y-87241927D02*
X118715238Y-87260975D01*
X118715238Y-87260975D02*
X118734285Y-87280022D01*
X118734285Y-87280022D02*
X118753333Y-87318118D01*
X118753333Y-87318118D02*
X118753333Y-87375260D01*
X118753333Y-87375260D02*
X118734285Y-87413356D01*
X118734285Y-87413356D02*
X118715238Y-87432403D01*
X118715238Y-87432403D02*
X118677143Y-87451451D01*
X118677143Y-87451451D02*
X118524762Y-87451451D01*
X119096190Y-87241927D02*
X119020000Y-87241927D01*
X119020000Y-87241927D02*
X118981904Y-87260975D01*
X118981904Y-87260975D02*
X118962857Y-87280022D01*
X118962857Y-87280022D02*
X118924762Y-87337165D01*
X118924762Y-87337165D02*
X118905714Y-87413356D01*
X118905714Y-87413356D02*
X118905714Y-87565737D01*
X118905714Y-87565737D02*
X118924762Y-87603832D01*
X118924762Y-87603832D02*
X118943809Y-87622880D01*
X118943809Y-87622880D02*
X118981904Y-87641927D01*
X118981904Y-87641927D02*
X119058095Y-87641927D01*
X119058095Y-87641927D02*
X119096190Y-87622880D01*
X119096190Y-87622880D02*
X119115238Y-87603832D01*
X119115238Y-87603832D02*
X119134285Y-87565737D01*
X119134285Y-87565737D02*
X119134285Y-87470499D01*
X119134285Y-87470499D02*
X119115238Y-87432403D01*
X119115238Y-87432403D02*
X119096190Y-87413356D01*
X119096190Y-87413356D02*
X119058095Y-87394308D01*
X119058095Y-87394308D02*
X118981904Y-87394308D01*
X118981904Y-87394308D02*
X118943809Y-87413356D01*
X118943809Y-87413356D02*
X118924762Y-87432403D01*
X118924762Y-87432403D02*
X118905714Y-87470499D01*
D10*
X118028059Y-82730950D02*
X118028059Y-83016664D01*
X118028059Y-82873807D02*
X117528059Y-82873807D01*
X117528059Y-82873807D02*
X117599488Y-82921426D01*
X117599488Y-82921426D02*
X117647107Y-82969045D01*
X117647107Y-82969045D02*
X117670916Y-83016664D01*
X117575678Y-82540474D02*
X117551869Y-82516665D01*
X117551869Y-82516665D02*
X117528059Y-82469046D01*
X117528059Y-82469046D02*
X117528059Y-82349998D01*
X117528059Y-82349998D02*
X117551869Y-82302379D01*
X117551869Y-82302379D02*
X117575678Y-82278570D01*
X117575678Y-82278570D02*
X117623297Y-82254760D01*
X117623297Y-82254760D02*
X117670916Y-82254760D01*
X117670916Y-82254760D02*
X117742345Y-82278570D01*
X117742345Y-82278570D02*
X118028059Y-82564284D01*
X118028059Y-82564284D02*
X118028059Y-82254760D01*
X117528059Y-81802380D02*
X117528059Y-82040475D01*
X117528059Y-82040475D02*
X117766154Y-82064284D01*
X117766154Y-82064284D02*
X117742345Y-82040475D01*
X117742345Y-82040475D02*
X117718535Y-81992856D01*
X117718535Y-81992856D02*
X117718535Y-81873808D01*
X117718535Y-81873808D02*
X117742345Y-81826189D01*
X117742345Y-81826189D02*
X117766154Y-81802380D01*
X117766154Y-81802380D02*
X117813773Y-81778570D01*
X117813773Y-81778570D02*
X117932821Y-81778570D01*
X117932821Y-81778570D02*
X117980440Y-81802380D01*
X117980440Y-81802380D02*
X118004250Y-81826189D01*
X118004250Y-81826189D02*
X118028059Y-81873808D01*
X118028059Y-81873808D02*
X118028059Y-81992856D01*
X118028059Y-81992856D02*
X118004250Y-82040475D01*
X118004250Y-82040475D02*
X117980440Y-82064284D01*
X117980440Y-81564285D02*
X118004250Y-81540475D01*
X118004250Y-81540475D02*
X118028059Y-81564285D01*
X118028059Y-81564285D02*
X118004250Y-81588094D01*
X118004250Y-81588094D02*
X117980440Y-81564285D01*
X117980440Y-81564285D02*
X118028059Y-81564285D01*
X117528059Y-81111904D02*
X117528059Y-81207142D01*
X117528059Y-81207142D02*
X117551869Y-81254761D01*
X117551869Y-81254761D02*
X117575678Y-81278571D01*
X117575678Y-81278571D02*
X117647107Y-81326190D01*
X117647107Y-81326190D02*
X117742345Y-81349999D01*
X117742345Y-81349999D02*
X117932821Y-81349999D01*
X117932821Y-81349999D02*
X117980440Y-81326190D01*
X117980440Y-81326190D02*
X118004250Y-81302380D01*
X118004250Y-81302380D02*
X118028059Y-81254761D01*
X118028059Y-81254761D02*
X118028059Y-81159523D01*
X118028059Y-81159523D02*
X118004250Y-81111904D01*
X118004250Y-81111904D02*
X117980440Y-81088095D01*
X117980440Y-81088095D02*
X117932821Y-81064285D01*
X117932821Y-81064285D02*
X117813773Y-81064285D01*
X117813773Y-81064285D02*
X117766154Y-81088095D01*
X117766154Y-81088095D02*
X117742345Y-81111904D01*
X117742345Y-81111904D02*
X117718535Y-81159523D01*
X117718535Y-81159523D02*
X117718535Y-81254761D01*
X117718535Y-81254761D02*
X117742345Y-81302380D01*
X117742345Y-81302380D02*
X117766154Y-81326190D01*
X117766154Y-81326190D02*
X117813773Y-81349999D01*
X117575678Y-80873809D02*
X117551869Y-80850000D01*
X117551869Y-80850000D02*
X117528059Y-80802381D01*
X117528059Y-80802381D02*
X117528059Y-80683333D01*
X117528059Y-80683333D02*
X117551869Y-80635714D01*
X117551869Y-80635714D02*
X117575678Y-80611905D01*
X117575678Y-80611905D02*
X117623297Y-80588095D01*
X117623297Y-80588095D02*
X117670916Y-80588095D01*
X117670916Y-80588095D02*
X117742345Y-80611905D01*
X117742345Y-80611905D02*
X118028059Y-80897619D01*
X118028059Y-80897619D02*
X118028059Y-80588095D01*
X118028059Y-80373810D02*
X117528059Y-80373810D01*
X117837583Y-80326191D02*
X118028059Y-80183334D01*
X117694726Y-80183334D02*
X117885202Y-80373810D01*
D13*
X116811927Y-81796666D02*
X116621451Y-81929999D01*
X116811927Y-82025237D02*
X116411927Y-82025237D01*
X116411927Y-82025237D02*
X116411927Y-81872856D01*
X116411927Y-81872856D02*
X116430975Y-81834761D01*
X116430975Y-81834761D02*
X116450022Y-81815714D01*
X116450022Y-81815714D02*
X116488118Y-81796666D01*
X116488118Y-81796666D02*
X116545260Y-81796666D01*
X116545260Y-81796666D02*
X116583356Y-81815714D01*
X116583356Y-81815714D02*
X116602403Y-81834761D01*
X116602403Y-81834761D02*
X116621451Y-81872856D01*
X116621451Y-81872856D02*
X116621451Y-82025237D01*
X116811927Y-81415714D02*
X116811927Y-81644285D01*
X116811927Y-81529999D02*
X116411927Y-81529999D01*
X116411927Y-81529999D02*
X116469070Y-81568095D01*
X116469070Y-81568095D02*
X116507165Y-81606190D01*
X116507165Y-81606190D02*
X116526213Y-81644285D01*
D10*
X131319048Y-91928059D02*
X131485714Y-92428059D01*
X131485714Y-92428059D02*
X131652381Y-91928059D01*
X131914285Y-91928059D02*
X132009523Y-91928059D01*
X132009523Y-91928059D02*
X132057142Y-91951869D01*
X132057142Y-91951869D02*
X132104761Y-91999488D01*
X132104761Y-91999488D02*
X132128571Y-92094726D01*
X132128571Y-92094726D02*
X132128571Y-92261392D01*
X132128571Y-92261392D02*
X132104761Y-92356630D01*
X132104761Y-92356630D02*
X132057142Y-92404250D01*
X132057142Y-92404250D02*
X132009523Y-92428059D01*
X132009523Y-92428059D02*
X131914285Y-92428059D01*
X131914285Y-92428059D02*
X131866666Y-92404250D01*
X131866666Y-92404250D02*
X131819047Y-92356630D01*
X131819047Y-92356630D02*
X131795238Y-92261392D01*
X131795238Y-92261392D02*
X131795238Y-92094726D01*
X131795238Y-92094726D02*
X131819047Y-91999488D01*
X131819047Y-91999488D02*
X131866666Y-91951869D01*
X131866666Y-91951869D02*
X131914285Y-91928059D01*
X132342857Y-91928059D02*
X132342857Y-92332821D01*
X132342857Y-92332821D02*
X132366667Y-92380440D01*
X132366667Y-92380440D02*
X132390476Y-92404250D01*
X132390476Y-92404250D02*
X132438095Y-92428059D01*
X132438095Y-92428059D02*
X132533333Y-92428059D01*
X132533333Y-92428059D02*
X132580952Y-92404250D01*
X132580952Y-92404250D02*
X132604762Y-92380440D01*
X132604762Y-92380440D02*
X132628571Y-92332821D01*
X132628571Y-92332821D02*
X132628571Y-91928059D01*
X132795239Y-91928059D02*
X133080953Y-91928059D01*
X132938096Y-92428059D02*
X132938096Y-91928059D01*
D11*
X131654819Y-94133333D02*
X132369104Y-94133333D01*
X132369104Y-94133333D02*
X132511961Y-94180952D01*
X132511961Y-94180952D02*
X132607200Y-94276190D01*
X132607200Y-94276190D02*
X132654819Y-94419047D01*
X132654819Y-94419047D02*
X132654819Y-94514285D01*
X131654819Y-93752380D02*
X131654819Y-93133333D01*
X131654819Y-93133333D02*
X132035771Y-93466666D01*
X132035771Y-93466666D02*
X132035771Y-93323809D01*
X132035771Y-93323809D02*
X132083390Y-93228571D01*
X132083390Y-93228571D02*
X132131009Y-93180952D01*
X132131009Y-93180952D02*
X132226247Y-93133333D01*
X132226247Y-93133333D02*
X132464342Y-93133333D01*
X132464342Y-93133333D02*
X132559580Y-93180952D01*
X132559580Y-93180952D02*
X132607200Y-93228571D01*
X132607200Y-93228571D02*
X132654819Y-93323809D01*
X132654819Y-93323809D02*
X132654819Y-93609523D01*
X132654819Y-93609523D02*
X132607200Y-93704761D01*
X132607200Y-93704761D02*
X132559580Y-93752380D01*
D10*
X119913178Y-73959522D02*
X119889369Y-73935713D01*
X119889369Y-73935713D02*
X119865559Y-73888094D01*
X119865559Y-73888094D02*
X119865559Y-73769046D01*
X119865559Y-73769046D02*
X119889369Y-73721427D01*
X119889369Y-73721427D02*
X119913178Y-73697618D01*
X119913178Y-73697618D02*
X119960797Y-73673808D01*
X119960797Y-73673808D02*
X120008416Y-73673808D01*
X120008416Y-73673808D02*
X120079845Y-73697618D01*
X120079845Y-73697618D02*
X120365559Y-73983332D01*
X120365559Y-73983332D02*
X120365559Y-73673808D01*
X119913178Y-73483332D02*
X119889369Y-73459523D01*
X119889369Y-73459523D02*
X119865559Y-73411904D01*
X119865559Y-73411904D02*
X119865559Y-73292856D01*
X119865559Y-73292856D02*
X119889369Y-73245237D01*
X119889369Y-73245237D02*
X119913178Y-73221428D01*
X119913178Y-73221428D02*
X119960797Y-73197618D01*
X119960797Y-73197618D02*
X120008416Y-73197618D01*
X120008416Y-73197618D02*
X120079845Y-73221428D01*
X120079845Y-73221428D02*
X120365559Y-73507142D01*
X120365559Y-73507142D02*
X120365559Y-73197618D01*
X119865559Y-72888095D02*
X119865559Y-72840476D01*
X119865559Y-72840476D02*
X119889369Y-72792857D01*
X119889369Y-72792857D02*
X119913178Y-72769047D01*
X119913178Y-72769047D02*
X119960797Y-72745238D01*
X119960797Y-72745238D02*
X120056035Y-72721428D01*
X120056035Y-72721428D02*
X120175083Y-72721428D01*
X120175083Y-72721428D02*
X120270321Y-72745238D01*
X120270321Y-72745238D02*
X120317940Y-72769047D01*
X120317940Y-72769047D02*
X120341750Y-72792857D01*
X120341750Y-72792857D02*
X120365559Y-72840476D01*
X120365559Y-72840476D02*
X120365559Y-72888095D01*
X120365559Y-72888095D02*
X120341750Y-72935714D01*
X120341750Y-72935714D02*
X120317940Y-72959523D01*
X120317940Y-72959523D02*
X120270321Y-72983333D01*
X120270321Y-72983333D02*
X120175083Y-73007142D01*
X120175083Y-73007142D02*
X120056035Y-73007142D01*
X120056035Y-73007142D02*
X119960797Y-72983333D01*
X119960797Y-72983333D02*
X119913178Y-72959523D01*
X119913178Y-72959523D02*
X119889369Y-72935714D01*
X119889369Y-72935714D02*
X119865559Y-72888095D01*
X120032226Y-72507143D02*
X120532226Y-72507143D01*
X120056035Y-72507143D02*
X120032226Y-72459524D01*
X120032226Y-72459524D02*
X120032226Y-72364286D01*
X120032226Y-72364286D02*
X120056035Y-72316667D01*
X120056035Y-72316667D02*
X120079845Y-72292857D01*
X120079845Y-72292857D02*
X120127464Y-72269048D01*
X120127464Y-72269048D02*
X120270321Y-72269048D01*
X120270321Y-72269048D02*
X120317940Y-72292857D01*
X120317940Y-72292857D02*
X120341750Y-72316667D01*
X120341750Y-72316667D02*
X120365559Y-72364286D01*
X120365559Y-72364286D02*
X120365559Y-72459524D01*
X120365559Y-72459524D02*
X120341750Y-72507143D01*
X120103654Y-71888095D02*
X120103654Y-72054762D01*
X120365559Y-72054762D02*
X119865559Y-72054762D01*
X119865559Y-72054762D02*
X119865559Y-71816667D01*
D13*
X120281332Y-75866666D02*
X120300380Y-75885714D01*
X120300380Y-75885714D02*
X120319427Y-75942856D01*
X120319427Y-75942856D02*
X120319427Y-75980952D01*
X120319427Y-75980952D02*
X120300380Y-76038095D01*
X120300380Y-76038095D02*
X120262284Y-76076190D01*
X120262284Y-76076190D02*
X120224189Y-76095237D01*
X120224189Y-76095237D02*
X120147999Y-76114285D01*
X120147999Y-76114285D02*
X120090856Y-76114285D01*
X120090856Y-76114285D02*
X120014665Y-76095237D01*
X120014665Y-76095237D02*
X119976570Y-76076190D01*
X119976570Y-76076190D02*
X119938475Y-76038095D01*
X119938475Y-76038095D02*
X119919427Y-75980952D01*
X119919427Y-75980952D02*
X119919427Y-75942856D01*
X119919427Y-75942856D02*
X119938475Y-75885714D01*
X119938475Y-75885714D02*
X119957522Y-75866666D01*
X119919427Y-75733333D02*
X119919427Y-75485714D01*
X119919427Y-75485714D02*
X120071808Y-75619047D01*
X120071808Y-75619047D02*
X120071808Y-75561904D01*
X120071808Y-75561904D02*
X120090856Y-75523809D01*
X120090856Y-75523809D02*
X120109903Y-75504761D01*
X120109903Y-75504761D02*
X120147999Y-75485714D01*
X120147999Y-75485714D02*
X120243237Y-75485714D01*
X120243237Y-75485714D02*
X120281332Y-75504761D01*
X120281332Y-75504761D02*
X120300380Y-75523809D01*
X120300380Y-75523809D02*
X120319427Y-75561904D01*
X120319427Y-75561904D02*
X120319427Y-75676190D01*
X120319427Y-75676190D02*
X120300380Y-75714285D01*
X120300380Y-75714285D02*
X120281332Y-75733333D01*
D10*
X124028059Y-82773808D02*
X124028059Y-83059522D01*
X124028059Y-82916665D02*
X123528059Y-82916665D01*
X123528059Y-82916665D02*
X123599488Y-82964284D01*
X123599488Y-82964284D02*
X123647107Y-83011903D01*
X123647107Y-83011903D02*
X123670916Y-83059522D01*
X123528059Y-82464285D02*
X123528059Y-82416666D01*
X123528059Y-82416666D02*
X123551869Y-82369047D01*
X123551869Y-82369047D02*
X123575678Y-82345237D01*
X123575678Y-82345237D02*
X123623297Y-82321428D01*
X123623297Y-82321428D02*
X123718535Y-82297618D01*
X123718535Y-82297618D02*
X123837583Y-82297618D01*
X123837583Y-82297618D02*
X123932821Y-82321428D01*
X123932821Y-82321428D02*
X123980440Y-82345237D01*
X123980440Y-82345237D02*
X124004250Y-82369047D01*
X124004250Y-82369047D02*
X124028059Y-82416666D01*
X124028059Y-82416666D02*
X124028059Y-82464285D01*
X124028059Y-82464285D02*
X124004250Y-82511904D01*
X124004250Y-82511904D02*
X123980440Y-82535713D01*
X123980440Y-82535713D02*
X123932821Y-82559523D01*
X123932821Y-82559523D02*
X123837583Y-82583332D01*
X123837583Y-82583332D02*
X123718535Y-82583332D01*
X123718535Y-82583332D02*
X123623297Y-82559523D01*
X123623297Y-82559523D02*
X123575678Y-82535713D01*
X123575678Y-82535713D02*
X123551869Y-82511904D01*
X123551869Y-82511904D02*
X123528059Y-82464285D01*
X123528059Y-81988095D02*
X123528059Y-81940476D01*
X123528059Y-81940476D02*
X123551869Y-81892857D01*
X123551869Y-81892857D02*
X123575678Y-81869047D01*
X123575678Y-81869047D02*
X123623297Y-81845238D01*
X123623297Y-81845238D02*
X123718535Y-81821428D01*
X123718535Y-81821428D02*
X123837583Y-81821428D01*
X123837583Y-81821428D02*
X123932821Y-81845238D01*
X123932821Y-81845238D02*
X123980440Y-81869047D01*
X123980440Y-81869047D02*
X124004250Y-81892857D01*
X124004250Y-81892857D02*
X124028059Y-81940476D01*
X124028059Y-81940476D02*
X124028059Y-81988095D01*
X124028059Y-81988095D02*
X124004250Y-82035714D01*
X124004250Y-82035714D02*
X123980440Y-82059523D01*
X123980440Y-82059523D02*
X123932821Y-82083333D01*
X123932821Y-82083333D02*
X123837583Y-82107142D01*
X123837583Y-82107142D02*
X123718535Y-82107142D01*
X123718535Y-82107142D02*
X123623297Y-82083333D01*
X123623297Y-82083333D02*
X123575678Y-82059523D01*
X123575678Y-82059523D02*
X123551869Y-82035714D01*
X123551869Y-82035714D02*
X123528059Y-81988095D01*
X123694726Y-81607143D02*
X124028059Y-81607143D01*
X123742345Y-81607143D02*
X123718535Y-81583333D01*
X123718535Y-81583333D02*
X123694726Y-81535714D01*
X123694726Y-81535714D02*
X123694726Y-81464286D01*
X123694726Y-81464286D02*
X123718535Y-81416667D01*
X123718535Y-81416667D02*
X123766154Y-81392857D01*
X123766154Y-81392857D02*
X124028059Y-81392857D01*
X123766154Y-80988095D02*
X123766154Y-81154762D01*
X124028059Y-81154762D02*
X123528059Y-81154762D01*
X123528059Y-81154762D02*
X123528059Y-80916667D01*
D13*
X124881332Y-84066666D02*
X124900380Y-84085714D01*
X124900380Y-84085714D02*
X124919427Y-84142856D01*
X124919427Y-84142856D02*
X124919427Y-84180952D01*
X124919427Y-84180952D02*
X124900380Y-84238095D01*
X124900380Y-84238095D02*
X124862284Y-84276190D01*
X124862284Y-84276190D02*
X124824189Y-84295237D01*
X124824189Y-84295237D02*
X124747999Y-84314285D01*
X124747999Y-84314285D02*
X124690856Y-84314285D01*
X124690856Y-84314285D02*
X124614665Y-84295237D01*
X124614665Y-84295237D02*
X124576570Y-84276190D01*
X124576570Y-84276190D02*
X124538475Y-84238095D01*
X124538475Y-84238095D02*
X124519427Y-84180952D01*
X124519427Y-84180952D02*
X124519427Y-84142856D01*
X124519427Y-84142856D02*
X124538475Y-84085714D01*
X124538475Y-84085714D02*
X124557522Y-84066666D01*
X124652760Y-83723809D02*
X124919427Y-83723809D01*
X124500380Y-83819047D02*
X124786094Y-83914285D01*
X124786094Y-83914285D02*
X124786094Y-83666666D01*
D10*
X118165559Y-73702379D02*
X118165559Y-73797617D01*
X118165559Y-73797617D02*
X118189369Y-73845236D01*
X118189369Y-73845236D02*
X118213178Y-73869046D01*
X118213178Y-73869046D02*
X118284607Y-73916665D01*
X118284607Y-73916665D02*
X118379845Y-73940474D01*
X118379845Y-73940474D02*
X118570321Y-73940474D01*
X118570321Y-73940474D02*
X118617940Y-73916665D01*
X118617940Y-73916665D02*
X118641750Y-73892855D01*
X118641750Y-73892855D02*
X118665559Y-73845236D01*
X118665559Y-73845236D02*
X118665559Y-73749998D01*
X118665559Y-73749998D02*
X118641750Y-73702379D01*
X118641750Y-73702379D02*
X118617940Y-73678570D01*
X118617940Y-73678570D02*
X118570321Y-73654760D01*
X118570321Y-73654760D02*
X118451273Y-73654760D01*
X118451273Y-73654760D02*
X118403654Y-73678570D01*
X118403654Y-73678570D02*
X118379845Y-73702379D01*
X118379845Y-73702379D02*
X118356035Y-73749998D01*
X118356035Y-73749998D02*
X118356035Y-73845236D01*
X118356035Y-73845236D02*
X118379845Y-73892855D01*
X118379845Y-73892855D02*
X118403654Y-73916665D01*
X118403654Y-73916665D02*
X118451273Y-73940474D01*
X118379845Y-73369046D02*
X118356035Y-73416665D01*
X118356035Y-73416665D02*
X118332226Y-73440475D01*
X118332226Y-73440475D02*
X118284607Y-73464284D01*
X118284607Y-73464284D02*
X118260797Y-73464284D01*
X118260797Y-73464284D02*
X118213178Y-73440475D01*
X118213178Y-73440475D02*
X118189369Y-73416665D01*
X118189369Y-73416665D02*
X118165559Y-73369046D01*
X118165559Y-73369046D02*
X118165559Y-73273808D01*
X118165559Y-73273808D02*
X118189369Y-73226189D01*
X118189369Y-73226189D02*
X118213178Y-73202380D01*
X118213178Y-73202380D02*
X118260797Y-73178570D01*
X118260797Y-73178570D02*
X118284607Y-73178570D01*
X118284607Y-73178570D02*
X118332226Y-73202380D01*
X118332226Y-73202380D02*
X118356035Y-73226189D01*
X118356035Y-73226189D02*
X118379845Y-73273808D01*
X118379845Y-73273808D02*
X118379845Y-73369046D01*
X118379845Y-73369046D02*
X118403654Y-73416665D01*
X118403654Y-73416665D02*
X118427464Y-73440475D01*
X118427464Y-73440475D02*
X118475083Y-73464284D01*
X118475083Y-73464284D02*
X118570321Y-73464284D01*
X118570321Y-73464284D02*
X118617940Y-73440475D01*
X118617940Y-73440475D02*
X118641750Y-73416665D01*
X118641750Y-73416665D02*
X118665559Y-73369046D01*
X118665559Y-73369046D02*
X118665559Y-73273808D01*
X118665559Y-73273808D02*
X118641750Y-73226189D01*
X118641750Y-73226189D02*
X118617940Y-73202380D01*
X118617940Y-73202380D02*
X118570321Y-73178570D01*
X118570321Y-73178570D02*
X118475083Y-73178570D01*
X118475083Y-73178570D02*
X118427464Y-73202380D01*
X118427464Y-73202380D02*
X118403654Y-73226189D01*
X118403654Y-73226189D02*
X118379845Y-73273808D01*
X118617940Y-72964285D02*
X118641750Y-72940475D01*
X118641750Y-72940475D02*
X118665559Y-72964285D01*
X118665559Y-72964285D02*
X118641750Y-72988094D01*
X118641750Y-72988094D02*
X118617940Y-72964285D01*
X118617940Y-72964285D02*
X118665559Y-72964285D01*
X118665559Y-72464285D02*
X118665559Y-72749999D01*
X118665559Y-72607142D02*
X118165559Y-72607142D01*
X118165559Y-72607142D02*
X118236988Y-72654761D01*
X118236988Y-72654761D02*
X118284607Y-72702380D01*
X118284607Y-72702380D02*
X118308416Y-72749999D01*
X118665559Y-72250000D02*
X118165559Y-72250000D01*
X118475083Y-72202381D02*
X118665559Y-72059524D01*
X118332226Y-72059524D02*
X118522702Y-72250000D01*
D13*
X118619427Y-75866666D02*
X118428951Y-75999999D01*
X118619427Y-76095237D02*
X118219427Y-76095237D01*
X118219427Y-76095237D02*
X118219427Y-75942856D01*
X118219427Y-75942856D02*
X118238475Y-75904761D01*
X118238475Y-75904761D02*
X118257522Y-75885714D01*
X118257522Y-75885714D02*
X118295618Y-75866666D01*
X118295618Y-75866666D02*
X118352760Y-75866666D01*
X118352760Y-75866666D02*
X118390856Y-75885714D01*
X118390856Y-75885714D02*
X118409903Y-75904761D01*
X118409903Y-75904761D02*
X118428951Y-75942856D01*
X118428951Y-75942856D02*
X118428951Y-76095237D01*
X118219427Y-75733333D02*
X118219427Y-75485714D01*
X118219427Y-75485714D02*
X118371808Y-75619047D01*
X118371808Y-75619047D02*
X118371808Y-75561904D01*
X118371808Y-75561904D02*
X118390856Y-75523809D01*
X118390856Y-75523809D02*
X118409903Y-75504761D01*
X118409903Y-75504761D02*
X118447999Y-75485714D01*
X118447999Y-75485714D02*
X118543237Y-75485714D01*
X118543237Y-75485714D02*
X118581332Y-75504761D01*
X118581332Y-75504761D02*
X118600380Y-75523809D01*
X118600380Y-75523809D02*
X118619427Y-75561904D01*
X118619427Y-75561904D02*
X118619427Y-75676190D01*
X118619427Y-75676190D02*
X118600380Y-75714285D01*
X118600380Y-75714285D02*
X118581332Y-75733333D01*
%TO.C,L1*%
D14*
X132940000Y-77810000D02*
G75*
G02*
X129120000Y-77810000I-1910000J1910000D01*
G01*
X129120000Y-73990000D02*
G75*
G02*
X132940000Y-73990000I1910000J-1910000D01*
G01*
X134180000Y-79050000D02*
X134180000Y-77400000D01*
X134180000Y-72750000D02*
X134180000Y-74400000D01*
X127880000Y-79050000D02*
X134180000Y-79050000D01*
X127880000Y-79050000D02*
X127880000Y-77400000D01*
X127880000Y-72750000D02*
X134180000Y-72750000D01*
X127880000Y-72750000D02*
X127880000Y-74400000D01*
D12*
X134330000Y-79100000D02*
X127730000Y-79100000D01*
X134330000Y-77400000D02*
X134330000Y-79100000D01*
X134330000Y-72700000D02*
X134330000Y-74400000D01*
X127730000Y-79100000D02*
X127730000Y-77400000D01*
X127730000Y-74400000D02*
X127730000Y-72700000D01*
X127730000Y-72700000D02*
X134330000Y-72700000D01*
%TO.C,C2*%
D14*
X130700000Y-87100000D02*
X133900000Y-87100000D01*
X133900000Y-88700000D01*
X130700000Y-88700000D01*
X130700000Y-87100000D01*
D12*
X133011252Y-88810000D02*
X131588748Y-88810000D01*
X133011252Y-86990000D02*
X131588748Y-86990000D01*
%TO.C,C21*%
D14*
X130700000Y-89600000D02*
X133900000Y-89600000D01*
X133900000Y-91200000D01*
X130700000Y-91200000D01*
X130700000Y-89600000D01*
D12*
X133011252Y-91310000D02*
X131588748Y-91310000D01*
X133011252Y-89490000D02*
X131588748Y-89490000D01*
%TO.C,U1*%
D15*
X123767500Y-79075000D02*
G75*
G02*
X123387500Y-79075000I-190000J0D01*
G01*
X123387500Y-79075000D02*
G75*
G02*
X123767500Y-79075000I190000J0D01*
G01*
D13*
X123317500Y-79175000D02*
G75*
G02*
X123257500Y-79175000I-30000J0D01*
G01*
X123257500Y-79175000D02*
G75*
G02*
X123317500Y-79175000I30000J0D01*
G01*
D15*
X123337500Y-82775000D02*
G75*
G02*
X123331627Y-81575714I70001J600000D01*
G01*
X123337500Y-84175000D02*
X123337500Y-82775000D01*
X123337500Y-80175000D02*
X123337500Y-81575000D01*
X123257500Y-84175000D02*
X123337500Y-84175000D01*
X123257500Y-80175000D02*
X123337500Y-80175000D01*
X121987500Y-84175000D02*
X122227500Y-84175000D01*
X121987500Y-80175000D02*
X122227500Y-80175000D01*
X120717500Y-84175000D02*
X120957500Y-84175000D01*
X120717500Y-80175000D02*
X120957500Y-80175000D01*
X119447500Y-84175000D02*
X119687500Y-84175000D01*
X119447500Y-80175000D02*
X119687500Y-80175000D01*
X118337500Y-84175000D02*
X118417500Y-84175000D01*
X118337500Y-84175000D02*
X118337500Y-80175000D01*
X118337500Y-80175000D02*
X118417500Y-80175000D01*
%TO.C,R2*%
D14*
X116225000Y-77500000D02*
X117050000Y-77500000D01*
X117050000Y-79100000D01*
X116225000Y-79100000D01*
X116225000Y-77500000D01*
D12*
X117160000Y-78554724D02*
X117160000Y-78045276D01*
X116115000Y-78554724D02*
X116115000Y-78045276D01*
%TO.C,R4*%
D14*
X121425000Y-75000000D02*
X122250000Y-75000000D01*
X122250000Y-76600000D01*
X121425000Y-76600000D01*
X121425000Y-75000000D01*
D12*
X122360000Y-76054724D02*
X122360000Y-75545276D01*
X121315000Y-76054724D02*
X121315000Y-75545276D01*
%TO.C,C11*%
D14*
X121592500Y-89690000D02*
X124792500Y-89690000D01*
X124792500Y-91290000D01*
X121592500Y-91290000D01*
X121592500Y-89690000D01*
D12*
X122481248Y-91400000D02*
X123903752Y-91400000D01*
X122481248Y-89580000D02*
X123903752Y-89580000D01*
%TO.C,J2*%
D14*
X123650000Y-92650000D02*
X127950000Y-92650000D01*
X127950000Y-94950000D01*
X123650000Y-94950000D01*
X123650000Y-92650000D01*
%TO.C,C1*%
X121592500Y-87090000D02*
X124792500Y-87090000D01*
X124792500Y-88690000D01*
X121592500Y-88690000D01*
X121592500Y-87090000D01*
D12*
X122481248Y-88800000D02*
X123903752Y-88800000D01*
X122481248Y-86980000D02*
X123903752Y-86980000D01*
%TO.C,J1*%
D14*
X116825000Y-92650000D02*
X121125000Y-92650000D01*
X121125000Y-94950000D01*
X116825000Y-94950000D01*
X116825000Y-92650000D01*
%TO.C,D1*%
X129300000Y-86850000D02*
X129300000Y-82250000D01*
X129300000Y-86850000D02*
X126300000Y-86850000D01*
X128599080Y-83900560D02*
X126998880Y-83900560D01*
X127798980Y-85051180D02*
X127798980Y-86049400D01*
X127798980Y-83900560D02*
X128599080Y-85051180D01*
X127798980Y-83900560D02*
X127798980Y-82998860D01*
X127798980Y-83900560D02*
X127049680Y-85051180D01*
X127049680Y-85051180D02*
X128599080Y-85051180D01*
X126300000Y-86850000D02*
X126300000Y-82250000D01*
X126300000Y-82250000D02*
X129300000Y-82250000D01*
D12*
X129450000Y-80040000D02*
X129450000Y-87050000D01*
X129450000Y-80040000D02*
X126150000Y-80040000D01*
X126150000Y-80040000D02*
X126150000Y-87050000D01*
%TO.C,R5*%
D14*
X123125000Y-75000000D02*
X123950000Y-75000000D01*
X123950000Y-76600000D01*
X123125000Y-76600000D01*
X123125000Y-75000000D01*
D12*
X124060000Y-75545276D02*
X124060000Y-76054724D01*
X123015000Y-75545276D02*
X123015000Y-76054724D01*
%TO.C,R6*%
D14*
X118020000Y-87047500D02*
X119620000Y-87047500D01*
X119620000Y-87872500D01*
X118020000Y-87872500D01*
X118020000Y-87047500D01*
D12*
X119074724Y-87982500D02*
X118565276Y-87982500D01*
X119074724Y-86937500D02*
X118565276Y-86937500D01*
%TO.C,R1*%
D14*
X116217500Y-80930000D02*
X117042500Y-80930000D01*
X117042500Y-82530000D01*
X116217500Y-82530000D01*
X116217500Y-80930000D01*
D12*
X117152500Y-81984724D02*
X117152500Y-81475276D01*
X116107500Y-81984724D02*
X116107500Y-81475276D01*
%TO.C,J3*%
D14*
X130050000Y-92650000D02*
X134350000Y-92650000D01*
X134350000Y-94950000D01*
X130050000Y-94950000D01*
X130050000Y-92650000D01*
%TO.C,C3*%
X119737500Y-75000000D02*
X120537500Y-75000000D01*
X120537500Y-76600000D01*
X119737500Y-76600000D01*
X119737500Y-75000000D01*
D12*
X120647500Y-75946267D02*
X120647500Y-75653733D01*
X119627500Y-75946267D02*
X119627500Y-75653733D01*
%TO.C,C4*%
D14*
X124337500Y-83200000D02*
X125137500Y-83200000D01*
X125137500Y-84800000D01*
X124337500Y-84800000D01*
X124337500Y-83200000D01*
D12*
X125247500Y-83853733D02*
X125247500Y-84146267D01*
X124227500Y-83853733D02*
X124227500Y-84146267D01*
%TO.C,R3*%
D14*
X118025000Y-75000000D02*
X118850000Y-75000000D01*
X118850000Y-76600000D01*
X118025000Y-76600000D01*
X118025000Y-75000000D01*
D12*
X118960000Y-75545276D02*
X118960000Y-76054724D01*
X117915000Y-75545276D02*
X117915000Y-76054724D01*
%TD*%
M02*
