%TF.GenerationSoftware,KiCad,Pcbnew,10.0.1*%
%TF.CreationDate,2026-05-10T18:08:26+02:00*%
%TF.ProjectId,buckMP1584,6275636b-4d50-4313-9538-342e6b696361,rev?*%
%TF.SameCoordinates,Original*%
%TF.FileFunction,Copper,L1,Top*%
%TF.FilePolarity,Positive*%
%FSLAX46Y46*%
G04 Gerber Fmt 4.6, Leading zero omitted, Abs format (unit mm)*
G04 Created by KiCad (PCBNEW 10.0.1) date 2026-05-10 18:08:26*
%MOMM*%
%LPD*%
G01*
G04 APERTURE LIST*
G04 Aperture macros list*
%AMRoundRect*
0 Rectangle with rounded corners*
0 $1 Rounding radius*
0 $2 $3 $4 $5 $6 $7 $8 $9 X,Y pos of 4 corners*
0 Add a 4 corners polygon primitive as box body*
4,1,4,$2,$3,$4,$5,$6,$7,$8,$9,$2,$3,0*
0 Add four circle primitives for the rounded corners*
1,1,$1+$1,$2,$3*
1,1,$1+$1,$4,$5*
1,1,$1+$1,$6,$7*
1,1,$1+$1,$8,$9*
0 Add four rect primitives between the rounded corners*
20,1,$1+$1,$2,$3,$4,$5,0*
20,1,$1+$1,$4,$5,$6,$7,0*
20,1,$1+$1,$6,$7,$8,$9,0*
20,1,$1+$1,$8,$9,$2,$3,0*%
G04 Aperture macros list end*
%TA.AperFunction,SMDPad,CuDef*%
%ADD10R,1.500000X2.400000*%
%TD*%
%TA.AperFunction,SMDPad,CuDef*%
%ADD11RoundRect,0.250000X0.412500X0.650000X-0.412500X0.650000X-0.412500X-0.650000X0.412500X-0.650000X0*%
%TD*%
%TA.AperFunction,SMDPad,CuDef*%
%ADD12R,3.300000X2.300000*%
%TD*%
%TA.AperFunction,SMDPad,CuDef*%
%ADD13O,0.700000X2.200000*%
%TD*%
%TA.AperFunction,SMDPad,CuDef*%
%ADD14RoundRect,0.237500X0.237500X-0.250000X0.237500X0.250000X-0.237500X0.250000X-0.237500X-0.250000X0*%
%TD*%
%TA.AperFunction,SMDPad,CuDef*%
%ADD15RoundRect,0.250000X-0.412500X-0.650000X0.412500X-0.650000X0.412500X0.650000X-0.412500X0.650000X0*%
%TD*%
%TA.AperFunction,SMDPad,CuDef*%
%ADD16RoundRect,0.500000X1.500000X-0.500000X1.500000X0.500000X-1.500000X0.500000X-1.500000X-0.500000X0*%
%TD*%
%TA.AperFunction,SMDPad,CuDef*%
%ADD17RoundRect,0.250000X-0.650000X1.500000X-0.650000X-1.500000X0.650000X-1.500000X0.650000X1.500000X0*%
%TD*%
%TA.AperFunction,SMDPad,CuDef*%
%ADD18RoundRect,0.237500X-0.237500X0.250000X-0.237500X-0.250000X0.237500X-0.250000X0.237500X0.250000X0*%
%TD*%
%TA.AperFunction,SMDPad,CuDef*%
%ADD19RoundRect,0.237500X0.250000X0.237500X-0.250000X0.237500X-0.250000X-0.237500X0.250000X-0.237500X0*%
%TD*%
%TA.AperFunction,SMDPad,CuDef*%
%ADD20RoundRect,0.237500X0.237500X-0.300000X0.237500X0.300000X-0.237500X0.300000X-0.237500X-0.300000X0*%
%TD*%
%TA.AperFunction,SMDPad,CuDef*%
%ADD21RoundRect,0.237500X-0.237500X0.300000X-0.237500X-0.300000X0.237500X-0.300000X0.237500X0.300000X0*%
%TD*%
%TA.AperFunction,ViaPad*%
%ADD22C,0.600000*%
%TD*%
%TA.AperFunction,Conductor*%
%ADD23C,0.200000*%
%TD*%
%TA.AperFunction,Conductor*%
%ADD24C,1.000000*%
%TD*%
%TA.AperFunction,Conductor*%
%ADD25C,1.800000*%
%TD*%
%TA.AperFunction,Conductor*%
%ADD26C,0.700000*%
%TD*%
%TA.AperFunction,Conductor*%
%ADD27C,1.500000*%
%TD*%
%TA.AperFunction,Conductor*%
%ADD28C,1.300000*%
%TD*%
G04 APERTURE END LIST*
D10*
%TO.P,L1,2,2_2*%
%TO.N,+3.3V*%
X133780000Y-75900000D03*
%TO.P,L1,1,1_1*%
%TO.N,Net-(D1-K)*%
X128280000Y-75900000D03*
%TD*%
D11*
%TO.P,C2,2*%
%TO.N,GND*%
X130737500Y-87900000D03*
%TO.P,C2,1*%
%TO.N,+3.3V*%
X133862500Y-87900000D03*
%TD*%
%TO.P,C21,2*%
%TO.N,GND*%
X130737500Y-90400000D03*
%TO.P,C21,1*%
%TO.N,+3.3V*%
X133862500Y-90400000D03*
%TD*%
D12*
%TO.P,U1,9,GND_9*%
%TO.N,GND*%
X120837500Y-82225000D03*
D13*
%TO.P,U1,8,BST_8*%
%TO.N,Net-(U1-BST)*%
X122747500Y-85195000D03*
%TO.P,U1,7,VIN_7*%
%TO.N,/VIN*%
X121477500Y-85195000D03*
%TO.P,U1,6,FREQ_6*%
%TO.N,Net-(U1-FREQ)*%
X120207500Y-85195000D03*
%TO.P,U1,5,GND_5*%
%TO.N,GND*%
X118937500Y-85195000D03*
%TO.P,U1,4,FB_4*%
%TO.N,/MP1584EN Buck module/Feedback*%
X118937500Y-79155000D03*
%TO.P,U1,3,COMP_3*%
%TO.N,Net-(U1-COMP)*%
X120207500Y-79155000D03*
%TO.P,U1,2,EN_2*%
%TO.N,Net-(U1-EN)*%
X121477500Y-79155000D03*
%TO.P,U1,1,SW_1*%
%TO.N,Net-(D1-K)*%
X122747500Y-79155000D03*
%TD*%
D14*
%TO.P,R2,2*%
%TO.N,GND*%
X116637500Y-77387500D03*
%TO.P,R2,1*%
%TO.N,/MP1584EN Buck module/Feedback*%
X116637500Y-79212500D03*
%TD*%
%TO.P,R4,2*%
%TO.N,GND*%
X121837500Y-74887500D03*
%TO.P,R4,1*%
%TO.N,Net-(U1-EN)*%
X121837500Y-76712500D03*
%TD*%
D15*
%TO.P,C11,2*%
%TO.N,GND*%
X124755000Y-90490000D03*
%TO.P,C11,1*%
%TO.N,/VIN*%
X121630000Y-90490000D03*
%TD*%
D16*
%TO.P,J2,1,Pin_1_1*%
%TO.N,GND*%
X125800000Y-93800000D03*
%TD*%
D15*
%TO.P,C1,2*%
%TO.N,GND*%
X124755000Y-87890000D03*
%TO.P,C1,1*%
%TO.N,/VIN*%
X121630000Y-87890000D03*
%TD*%
D16*
%TO.P,J1,1,Pin_1_1*%
%TO.N,/VIN*%
X118975000Y-93800000D03*
%TD*%
D17*
%TO.P,D1,2,A_2*%
%TO.N,GND*%
X127800000Y-87050000D03*
%TO.P,D1,1,K_1*%
%TO.N,Net-(D1-K)*%
X127800000Y-82050000D03*
%TD*%
D18*
%TO.P,R5,2*%
%TO.N,Net-(U1-EN)*%
X123537500Y-76712500D03*
%TO.P,R5,1*%
%TO.N,/VIN*%
X123537500Y-74887500D03*
%TD*%
D19*
%TO.P,R6,2*%
%TO.N,GND*%
X117907500Y-87460000D03*
%TO.P,R6,1*%
%TO.N,Net-(U1-FREQ)*%
X119732500Y-87460000D03*
%TD*%
D14*
%TO.P,R1,2*%
%TO.N,/MP1584EN Buck module/Feedback*%
X116630000Y-80817500D03*
%TO.P,R1,1*%
%TO.N,+3.3V*%
X116630000Y-82642500D03*
%TD*%
D16*
%TO.P,J3,1,Pin_1_1*%
%TO.N,+3.3V*%
X132200000Y-93800000D03*
%TD*%
D20*
%TO.P,C3,2*%
%TO.N,Net-(C3-Pad2)*%
X120137500Y-74937500D03*
%TO.P,C3,1*%
%TO.N,Net-(U1-COMP)*%
X120137500Y-76662500D03*
%TD*%
D21*
%TO.P,C4,2*%
%TO.N,Net-(U1-BST)*%
X124737500Y-84862500D03*
%TO.P,C4,1*%
%TO.N,Net-(D1-K)*%
X124737500Y-83137500D03*
%TD*%
D18*
%TO.P,R3,2*%
%TO.N,GND*%
X118437500Y-76712500D03*
%TO.P,R3,1*%
%TO.N,Net-(C3-Pad2)*%
X118437500Y-74887500D03*
%TD*%
D22*
%TO.N,+3.3V*%
X116800000Y-83200000D03*
X123600000Y-83600000D03*
%TO.N,GND*%
X129200000Y-93024994D03*
X130200000Y-81900000D03*
X118475000Y-90000000D03*
X131650000Y-81900000D03*
X130925000Y-83100000D03*
X130925000Y-81900000D03*
X118475000Y-90600000D03*
X128500000Y-93024994D03*
X119200000Y-90000000D03*
X119200000Y-90600000D03*
X130200000Y-82500000D03*
X130925000Y-82500000D03*
X129200000Y-93724997D03*
X129200000Y-94425000D03*
X119200000Y-89400000D03*
X131650000Y-82500000D03*
X128500000Y-92324997D03*
X128500000Y-93724997D03*
X129200000Y-92324997D03*
X130200000Y-83100000D03*
X117750000Y-89400000D03*
X131650000Y-83100000D03*
X128500000Y-94425000D03*
X117750000Y-90600000D03*
X118475000Y-89400000D03*
X117750000Y-90000000D03*
%TO.N,/VIN*%
X125000000Y-75000000D03*
X121477500Y-87000000D03*
%TD*%
%TO.N,/MP1584EN Buck module/Feedback*%
D23*
X116630000Y-79220000D02*
X116637500Y-79212500D01*
X116637500Y-79212500D02*
X116748500Y-79212500D01*
D24*
X116806000Y-79155000D02*
X118937500Y-79155000D01*
X116630000Y-80817500D02*
X116630000Y-79220000D01*
D23*
X116748500Y-79212500D02*
X116806000Y-79155000D01*
%TO.N,Net-(C3-Pad2)*%
D24*
X120137500Y-74937500D02*
X118487500Y-74937500D01*
D23*
X118487500Y-74937500D02*
X118437500Y-74887500D01*
%TO.N,Net-(D1-K)*%
X127800000Y-76380000D02*
X128280000Y-75900000D01*
D25*
X127800000Y-82050000D02*
X127800000Y-76380000D01*
D23*
X126895000Y-81145000D02*
X127800000Y-82050000D01*
D24*
X124737500Y-81145000D02*
X124737500Y-83137500D01*
D26*
X122747500Y-79155000D02*
X124737500Y-81145000D01*
D24*
X124737500Y-81145000D02*
X126895000Y-81145000D01*
%TO.N,+3.3V*%
D23*
X123600000Y-83600000D02*
X123975000Y-83975000D01*
D27*
X133780000Y-75900000D02*
X133780000Y-85000000D01*
D23*
X116630000Y-82642500D02*
X116630000Y-83030000D01*
X123975000Y-83975000D02*
X126790256Y-83975000D01*
X127815256Y-85000000D02*
X133780000Y-85000000D01*
D28*
X133862500Y-92137500D02*
X132200000Y-93800000D01*
D23*
X116630000Y-83030000D02*
X116800000Y-83200000D01*
D27*
X133780000Y-85000000D02*
X133780000Y-87817500D01*
D23*
X126790256Y-83975000D02*
X127815256Y-85000000D01*
D28*
X133862500Y-90400000D02*
X133862500Y-92137500D01*
X133862500Y-90400000D02*
X133862500Y-87900000D01*
D23*
X133780000Y-87817500D02*
X133862500Y-87900000D01*
%TO.N,/VIN*%
D28*
X121630000Y-87890000D02*
X121630000Y-90490000D01*
D26*
X121477500Y-87000000D02*
X121477500Y-87750000D01*
D28*
X121630000Y-90490000D02*
X121630000Y-91370000D01*
D23*
X123537500Y-74887500D02*
X124887500Y-74887500D01*
X121477500Y-87750000D02*
X121617500Y-87890000D01*
X124887500Y-74887500D02*
X125000000Y-75000000D01*
D28*
X121630000Y-91370000D02*
X119200000Y-93800000D01*
D26*
X121477500Y-85195000D02*
X121477500Y-87000000D01*
%TO.N,Net-(U1-COMP)*%
D23*
X120137500Y-79085000D02*
X120207500Y-79155000D01*
D26*
X120137500Y-76662500D02*
X120137500Y-79085000D01*
%TO.N,Net-(U1-BST)*%
X122747500Y-85195000D02*
X124405000Y-85195000D01*
D23*
X124405000Y-85195000D02*
X124737500Y-84862500D01*
%TO.N,Net-(U1-EN)*%
D26*
X121477500Y-79155000D02*
X121477500Y-77072500D01*
D23*
X121477500Y-77072500D02*
X121837500Y-76712500D01*
D24*
X121837500Y-76712500D02*
X123537500Y-76712500D01*
%TO.N,Net-(U1-FREQ)*%
D26*
X120207500Y-85195000D02*
X120207500Y-86985000D01*
X120207500Y-86985000D02*
X119732500Y-87460000D01*
%TD*%
%TA.AperFunction,Conductor*%
%TO.N,GND*%
G36*
X118104871Y-80175185D02*
G01*
X118150626Y-80227989D01*
X118152393Y-80232048D01*
X118183793Y-80307856D01*
X118183800Y-80307869D01*
X118276873Y-80447161D01*
X118276876Y-80447165D01*
X118395337Y-80565626D01*
X118487994Y-80627537D01*
X118534637Y-80658703D01*
X118689418Y-80722816D01*
X118853728Y-80755499D01*
X118853732Y-80755500D01*
X118853733Y-80755500D01*
X119021268Y-80755500D01*
X119021269Y-80755499D01*
X119185582Y-80722816D01*
X119340363Y-80658703D01*
X119479662Y-80565626D01*
X119484816Y-80560471D01*
X119546136Y-80526985D01*
X119615827Y-80531966D01*
X119660183Y-80560471D01*
X119665338Y-80565626D01*
X119804637Y-80658703D01*
X119959418Y-80722816D01*
X120123728Y-80755499D01*
X120123732Y-80755500D01*
X120123733Y-80755500D01*
X120291268Y-80755500D01*
X120291269Y-80755499D01*
X120455582Y-80722816D01*
X120610363Y-80658703D01*
X120749662Y-80565626D01*
X120754816Y-80560471D01*
X120816136Y-80526985D01*
X120885827Y-80531966D01*
X120930183Y-80560471D01*
X120935338Y-80565626D01*
X121074637Y-80658703D01*
X121229418Y-80722816D01*
X121393728Y-80755499D01*
X121393732Y-80755500D01*
X121393733Y-80755500D01*
X121561268Y-80755500D01*
X121561269Y-80755499D01*
X121725582Y-80722816D01*
X121880363Y-80658703D01*
X122019662Y-80565626D01*
X122024816Y-80560471D01*
X122086136Y-80526985D01*
X122155827Y-80531966D01*
X122200183Y-80560471D01*
X122205338Y-80565626D01*
X122344637Y-80658703D01*
X122499418Y-80722816D01*
X122663728Y-80755499D01*
X122663732Y-80755500D01*
X122663733Y-80755500D01*
X122831268Y-80755500D01*
X122831269Y-80755499D01*
X122995582Y-80722816D01*
X123001723Y-80720271D01*
X123071192Y-80712800D01*
X123133673Y-80744073D01*
X123136861Y-80747150D01*
X123700681Y-81310970D01*
X123734166Y-81372293D01*
X123737000Y-81398651D01*
X123737000Y-82675500D01*
X123717315Y-82742539D01*
X123664511Y-82788294D01*
X123613000Y-82799500D01*
X123521155Y-82799500D01*
X123366510Y-82830261D01*
X123366498Y-82830264D01*
X123220827Y-82890602D01*
X123220814Y-82890609D01*
X123089711Y-82978210D01*
X123089707Y-82978213D01*
X122978213Y-83089707D01*
X122978210Y-83089711D01*
X122890609Y-83220814D01*
X122890602Y-83220827D01*
X122830264Y-83366498D01*
X122830261Y-83366510D01*
X122804764Y-83494691D01*
X122772379Y-83556602D01*
X122711663Y-83591177D01*
X122683147Y-83594500D01*
X122663728Y-83594500D01*
X122499425Y-83627182D01*
X122499417Y-83627184D01*
X122344639Y-83691295D01*
X122205337Y-83784373D01*
X122205334Y-83784376D01*
X122200181Y-83789530D01*
X122138858Y-83823015D01*
X122069166Y-83818031D01*
X122024819Y-83789530D01*
X122019662Y-83784373D01*
X121880360Y-83691295D01*
X121725582Y-83627184D01*
X121725574Y-83627182D01*
X121561271Y-83594500D01*
X121561267Y-83594500D01*
X121393733Y-83594500D01*
X121393728Y-83594500D01*
X121229425Y-83627182D01*
X121229417Y-83627184D01*
X121074639Y-83691295D01*
X120935337Y-83784373D01*
X120935334Y-83784376D01*
X120930181Y-83789530D01*
X120868858Y-83823015D01*
X120799166Y-83818031D01*
X120754819Y-83789530D01*
X120749662Y-83784373D01*
X120610360Y-83691295D01*
X120455582Y-83627184D01*
X120455574Y-83627182D01*
X120291271Y-83594500D01*
X120291267Y-83594500D01*
X120123733Y-83594500D01*
X120123728Y-83594500D01*
X119959425Y-83627182D01*
X119959417Y-83627184D01*
X119804639Y-83691295D01*
X119665337Y-83784373D01*
X119546873Y-83902837D01*
X119453795Y-84042139D01*
X119389684Y-84196917D01*
X119389682Y-84196925D01*
X119357000Y-84361228D01*
X119357000Y-86397083D01*
X119337315Y-86464122D01*
X119284511Y-86509877D01*
X119272009Y-86514786D01*
X119220765Y-86531767D01*
X119168486Y-86549091D01*
X119168481Y-86549093D01*
X119021648Y-86639661D01*
X118899661Y-86761648D01*
X118809093Y-86908481D01*
X118809092Y-86908484D01*
X118754826Y-87072247D01*
X118754826Y-87072248D01*
X118754825Y-87072248D01*
X118744500Y-87173315D01*
X118744500Y-87746669D01*
X118744501Y-87746687D01*
X118754825Y-87847752D01*
X118777413Y-87915917D01*
X118809092Y-88011516D01*
X118899660Y-88158350D01*
X119021650Y-88280340D01*
X119168484Y-88370908D01*
X119332247Y-88425174D01*
X119433323Y-88435500D01*
X120031676Y-88435499D01*
X120031684Y-88435498D01*
X120031687Y-88435498D01*
X120087030Y-88429844D01*
X120132753Y-88425174D01*
X120296516Y-88370908D01*
X120296518Y-88370906D01*
X120303370Y-88368636D01*
X120304350Y-88371594D01*
X120322350Y-88368846D01*
X120353937Y-88362533D01*
X120356675Y-88363607D01*
X120359583Y-88363164D01*
X120388992Y-88376287D01*
X120418979Y-88388054D01*
X120420701Y-88390438D01*
X120423388Y-88391637D01*
X120441039Y-88418586D01*
X120459898Y-88444688D01*
X120460524Y-88448335D01*
X120461670Y-88450085D01*
X120466816Y-88479298D01*
X120467000Y-88482684D01*
X120467001Y-88590008D01*
X120477501Y-88692797D01*
X120478648Y-88696258D01*
X120479316Y-88708507D01*
X120478950Y-88710062D01*
X120479500Y-88715259D01*
X120479500Y-89664740D01*
X120477839Y-89680433D01*
X120478189Y-89680469D01*
X120467000Y-89789983D01*
X120467000Y-90854584D01*
X120447315Y-90921623D01*
X120430681Y-90942265D01*
X119109764Y-92263181D01*
X119048441Y-92296666D01*
X119022083Y-92299500D01*
X117416971Y-92299500D01*
X117416965Y-92299500D01*
X117416964Y-92299501D01*
X117405316Y-92300536D01*
X117297584Y-92310113D01*
X117101954Y-92366089D01*
X117011772Y-92413196D01*
X116921593Y-92460302D01*
X116921591Y-92460303D01*
X116921590Y-92460304D01*
X116763890Y-92588890D01*
X116635304Y-92746590D01*
X116541089Y-92926954D01*
X116485114Y-93122583D01*
X116485113Y-93122586D01*
X116474500Y-93241966D01*
X116474500Y-94358028D01*
X116474501Y-94358034D01*
X116485113Y-94477415D01*
X116541090Y-94673047D01*
X116564618Y-94718089D01*
X116578209Y-94786624D01*
X116552590Y-94851627D01*
X116495894Y-94892460D01*
X116454709Y-94899500D01*
X116199500Y-94899500D01*
X116132461Y-94879815D01*
X116086706Y-94827011D01*
X116075500Y-94775500D01*
X116075500Y-83906941D01*
X116095185Y-83839902D01*
X116147989Y-83794147D01*
X116217147Y-83784203D01*
X116280703Y-83813228D01*
X116287181Y-83819260D01*
X116289707Y-83821786D01*
X116289711Y-83821789D01*
X116420814Y-83909390D01*
X116420827Y-83909397D01*
X116566498Y-83969735D01*
X116566503Y-83969737D01*
X116721153Y-84000499D01*
X116721156Y-84000500D01*
X116721158Y-84000500D01*
X116878844Y-84000500D01*
X116878845Y-84000499D01*
X117033497Y-83969737D01*
X117179179Y-83909394D01*
X117310289Y-83821789D01*
X117421789Y-83710289D01*
X117509394Y-83579179D01*
X117569737Y-83433497D01*
X117600500Y-83278842D01*
X117600500Y-83121158D01*
X117594846Y-83092734D01*
X117595160Y-83049557D01*
X117594486Y-83049489D01*
X117605499Y-82941686D01*
X117605500Y-82941677D01*
X117605499Y-82343324D01*
X117595174Y-82242247D01*
X117540908Y-82078484D01*
X117450340Y-81931650D01*
X117336371Y-81817681D01*
X117302886Y-81756358D01*
X117307870Y-81686666D01*
X117336371Y-81642319D01*
X117450340Y-81528350D01*
X117540908Y-81381516D01*
X117595174Y-81217753D01*
X117605500Y-81116677D01*
X117605499Y-81053934D01*
X117607882Y-81029741D01*
X117630500Y-80916042D01*
X117630500Y-80279500D01*
X117650185Y-80212461D01*
X117702989Y-80166706D01*
X117754500Y-80155500D01*
X118037832Y-80155500D01*
X118104871Y-80175185D01*
G37*
%TD.AperFunction*%
%TA.AperFunction,Conductor*%
G36*
X126557198Y-84595185D02*
G01*
X126577840Y-84611819D01*
X127330395Y-85364374D01*
X127330405Y-85364385D01*
X127334735Y-85368715D01*
X127334736Y-85368716D01*
X127446540Y-85480520D01*
X127533351Y-85530639D01*
X127533353Y-85530641D01*
X127571407Y-85552611D01*
X127583471Y-85559577D01*
X127736199Y-85600501D01*
X127736202Y-85600501D01*
X127901909Y-85600501D01*
X127901925Y-85600500D01*
X132405500Y-85600500D01*
X132472539Y-85620185D01*
X132518294Y-85672989D01*
X132529500Y-85724500D01*
X132529500Y-87915922D01*
X132560290Y-88110326D01*
X132621116Y-88297525D01*
X132621119Y-88297532D01*
X132685985Y-88424840D01*
X132688622Y-88434708D01*
X132692535Y-88440161D01*
X132696822Y-88465382D01*
X132699338Y-88474793D01*
X132699500Y-88477960D01*
X132699501Y-88600008D01*
X132710001Y-88702797D01*
X132711197Y-88706407D01*
X132711838Y-88718918D01*
X132711485Y-88720394D01*
X132712000Y-88725259D01*
X132712000Y-89574740D01*
X132710339Y-89590433D01*
X132710689Y-89590469D01*
X132699500Y-89699983D01*
X132699500Y-91100001D01*
X132699501Y-91100018D01*
X132710689Y-91209533D01*
X132710339Y-91209568D01*
X132712000Y-91225259D01*
X132712000Y-91609584D01*
X132692315Y-91676623D01*
X132675681Y-91697265D01*
X132109765Y-92263181D01*
X132048442Y-92296666D01*
X132022084Y-92299500D01*
X130641971Y-92299500D01*
X130641965Y-92299500D01*
X130641964Y-92299501D01*
X130630316Y-92300536D01*
X130522584Y-92310113D01*
X130326954Y-92366089D01*
X130236772Y-92413196D01*
X130146593Y-92460302D01*
X130146591Y-92460303D01*
X130146590Y-92460304D01*
X129988890Y-92588890D01*
X129860304Y-92746590D01*
X129766089Y-92926954D01*
X129710114Y-93122583D01*
X129710113Y-93122586D01*
X129699500Y-93241966D01*
X129699500Y-94358028D01*
X129699501Y-94358034D01*
X129710113Y-94477415D01*
X129766090Y-94673047D01*
X129789618Y-94718089D01*
X129803209Y-94786624D01*
X129777590Y-94851627D01*
X129720894Y-94892460D01*
X129679709Y-94899500D01*
X121495291Y-94899500D01*
X121428252Y-94879815D01*
X121382497Y-94827011D01*
X121372553Y-94757853D01*
X121385382Y-94718089D01*
X121408909Y-94673049D01*
X121464886Y-94477418D01*
X121475500Y-94358037D01*
X121475499Y-93241964D01*
X121473246Y-93216633D01*
X121486915Y-93148118D01*
X121509075Y-93117976D01*
X122372432Y-92254620D01*
X122372439Y-92254614D01*
X122379499Y-92247554D01*
X122379501Y-92247553D01*
X122507553Y-92119501D01*
X122613996Y-91972994D01*
X122696211Y-91811639D01*
X122752171Y-91639409D01*
X122757042Y-91608656D01*
X122780501Y-91460546D01*
X122780501Y-91315255D01*
X122782161Y-91299567D01*
X122781811Y-91299532D01*
X122791077Y-91208829D01*
X122793000Y-91190009D01*
X122792999Y-89789992D01*
X122783804Y-89699983D01*
X122781811Y-89680468D01*
X122782160Y-89680432D01*
X122780500Y-89664741D01*
X122780500Y-88715259D01*
X122782161Y-88699567D01*
X122781811Y-88699532D01*
X122792999Y-88590016D01*
X122793000Y-88590009D01*
X122792999Y-87189992D01*
X122791295Y-87173315D01*
X122782499Y-87087203D01*
X122777543Y-87072247D01*
X122738980Y-86955874D01*
X122736579Y-86886048D01*
X122772310Y-86826006D01*
X122832492Y-86795256D01*
X122995582Y-86762816D01*
X123150363Y-86698703D01*
X123289662Y-86605626D01*
X123408126Y-86487162D01*
X123501203Y-86347863D01*
X123565316Y-86193082D01*
X123574819Y-86145309D01*
X123607203Y-86083398D01*
X123667919Y-86048824D01*
X123696436Y-86045500D01*
X124488768Y-86045500D01*
X124488769Y-86045499D01*
X124653082Y-86012816D01*
X124807863Y-85948703D01*
X124848729Y-85921397D01*
X124915407Y-85900519D01*
X124917620Y-85900499D01*
X125024170Y-85900499D01*
X125024176Y-85900499D01*
X125125253Y-85890174D01*
X125289016Y-85835908D01*
X125435850Y-85745340D01*
X125557840Y-85623350D01*
X125648408Y-85476516D01*
X125702674Y-85312753D01*
X125713000Y-85211677D01*
X125712999Y-84699499D01*
X125732683Y-84632461D01*
X125785487Y-84586706D01*
X125836999Y-84575500D01*
X126490159Y-84575500D01*
X126557198Y-84595185D01*
G37*
%TD.AperFunction*%
%TA.AperFunction,Conductor*%
G36*
X134642539Y-72120185D02*
G01*
X134688294Y-72172989D01*
X134699500Y-72224500D01*
X134699500Y-74075500D01*
X134679815Y-74142539D01*
X134627011Y-74188294D01*
X134575500Y-74199500D01*
X132982129Y-74199500D01*
X132982123Y-74199501D01*
X132922516Y-74205908D01*
X132787671Y-74256202D01*
X132787664Y-74256206D01*
X132672455Y-74342452D01*
X132672452Y-74342455D01*
X132586206Y-74457664D01*
X132586202Y-74457671D01*
X132535908Y-74592517D01*
X132532865Y-74620827D01*
X132529501Y-74652123D01*
X132529500Y-74652135D01*
X132529500Y-84275500D01*
X132509815Y-84342539D01*
X132457011Y-84388294D01*
X132405500Y-84399500D01*
X128939574Y-84399500D01*
X128872535Y-84379815D01*
X128826780Y-84327011D01*
X128816836Y-84257853D01*
X128845861Y-84194297D01*
X128874478Y-84169961D01*
X128918656Y-84142712D01*
X129042712Y-84018656D01*
X129134814Y-83869334D01*
X129189999Y-83702797D01*
X129200500Y-83600009D01*
X129200500Y-82078484D01*
X129200500Y-77656591D01*
X129220185Y-77589552D01*
X129265076Y-77547757D01*
X129272323Y-77543798D01*
X129272331Y-77543796D01*
X129387546Y-77457546D01*
X129473796Y-77342331D01*
X129524091Y-77207483D01*
X129530500Y-77147873D01*
X129530499Y-74652128D01*
X129524091Y-74592517D01*
X129522529Y-74588330D01*
X129473797Y-74457671D01*
X129473793Y-74457664D01*
X129387547Y-74342455D01*
X129387544Y-74342452D01*
X129272335Y-74256206D01*
X129272328Y-74256202D01*
X129137482Y-74205908D01*
X129137483Y-74205908D01*
X129077883Y-74199501D01*
X129077881Y-74199500D01*
X129077873Y-74199500D01*
X129077864Y-74199500D01*
X127482129Y-74199500D01*
X127482123Y-74199501D01*
X127422516Y-74205908D01*
X127287671Y-74256202D01*
X127287664Y-74256206D01*
X127172455Y-74342452D01*
X127172452Y-74342455D01*
X127086206Y-74457664D01*
X127086202Y-74457671D01*
X127035908Y-74592517D01*
X127032865Y-74620827D01*
X127029501Y-74652123D01*
X127029500Y-74652135D01*
X127029500Y-75145506D01*
X127009815Y-75212545D01*
X126978387Y-75245822D01*
X126922156Y-75286677D01*
X126887632Y-75311760D01*
X126731756Y-75467636D01*
X126731752Y-75467641D01*
X126602187Y-75645974D01*
X126502104Y-75842393D01*
X126502103Y-75842396D01*
X126433985Y-76052047D01*
X126399500Y-76269778D01*
X126399500Y-80020500D01*
X126379815Y-80087539D01*
X126327011Y-80133294D01*
X126275500Y-80144500D01*
X124991151Y-80144500D01*
X124924112Y-80124815D01*
X124903470Y-80108181D01*
X123634319Y-78839030D01*
X123600834Y-78777707D01*
X123598000Y-78751349D01*
X123598000Y-78321232D01*
X123597999Y-78321228D01*
X123591607Y-78289092D01*
X123565316Y-78156918D01*
X123515727Y-78037201D01*
X123501204Y-78002139D01*
X123436893Y-77905891D01*
X123435219Y-77900547D01*
X123431254Y-77896594D01*
X123424893Y-77867568D01*
X123416015Y-77839213D01*
X123417496Y-77833812D01*
X123416298Y-77828343D01*
X123426639Y-77800486D01*
X123434500Y-77771833D01*
X123438665Y-77768091D01*
X123440614Y-77762842D01*
X123464370Y-77745001D01*
X123486478Y-77725143D01*
X123493186Y-77723361D01*
X123496484Y-77720885D01*
X123515459Y-77717446D01*
X123530959Y-77713330D01*
X123535476Y-77713000D01*
X123636041Y-77713000D01*
X123694418Y-77701387D01*
X123702062Y-77700829D01*
X123703843Y-77701213D01*
X123711098Y-77700499D01*
X123824170Y-77700499D01*
X123824176Y-77700499D01*
X123925253Y-77690174D01*
X124089016Y-77635908D01*
X124235850Y-77545340D01*
X124357840Y-77423350D01*
X124448408Y-77276516D01*
X124502674Y-77112753D01*
X124513000Y-77011677D01*
X124512999Y-76948934D01*
X124515382Y-76924741D01*
X124538000Y-76811042D01*
X124538000Y-76613956D01*
X124515382Y-76500252D01*
X124512999Y-76476060D01*
X124512999Y-76413330D01*
X124512998Y-76413313D01*
X124502674Y-76312247D01*
X124469537Y-76212248D01*
X124448408Y-76148484D01*
X124357840Y-76001650D01*
X124243871Y-75887681D01*
X124239533Y-75879736D01*
X124232285Y-75874311D01*
X124223048Y-75849548D01*
X124210386Y-75826358D01*
X124211031Y-75817329D01*
X124207868Y-75808847D01*
X124213484Y-75783024D01*
X124215370Y-75756666D01*
X124221187Y-75747613D01*
X124222719Y-75740574D01*
X124243867Y-75712322D01*
X124324940Y-75631249D01*
X124386259Y-75597767D01*
X124455951Y-75602751D01*
X124484233Y-75619022D01*
X124484646Y-75618405D01*
X124620814Y-75709390D01*
X124620827Y-75709397D01*
X124766498Y-75769735D01*
X124766503Y-75769737D01*
X124863812Y-75789093D01*
X124921153Y-75800499D01*
X124921156Y-75800500D01*
X124921158Y-75800500D01*
X125078844Y-75800500D01*
X125078845Y-75800499D01*
X125233497Y-75769737D01*
X125352758Y-75720338D01*
X125379172Y-75709397D01*
X125379172Y-75709396D01*
X125379179Y-75709394D01*
X125510289Y-75621789D01*
X125621789Y-75510289D01*
X125709394Y-75379179D01*
X125769737Y-75233497D01*
X125800500Y-75078842D01*
X125800500Y-74921158D01*
X125800500Y-74921155D01*
X125800499Y-74921153D01*
X125769738Y-74766510D01*
X125769737Y-74766503D01*
X125769735Y-74766498D01*
X125709397Y-74620827D01*
X125709390Y-74620814D01*
X125621789Y-74489711D01*
X125621786Y-74489707D01*
X125510292Y-74378213D01*
X125510288Y-74378210D01*
X125379185Y-74290609D01*
X125379172Y-74290602D01*
X125233501Y-74230264D01*
X125233489Y-74230261D01*
X125078845Y-74199500D01*
X125078842Y-74199500D01*
X124921158Y-74199500D01*
X124921155Y-74199500D01*
X124766510Y-74230261D01*
X124766498Y-74230264D01*
X124652314Y-74277561D01*
X124644137Y-74279187D01*
X124639797Y-74281977D01*
X124604862Y-74287000D01*
X124495111Y-74287000D01*
X124428072Y-74267315D01*
X124389572Y-74228096D01*
X124357840Y-74176650D01*
X124235851Y-74054661D01*
X124235850Y-74054660D01*
X124089016Y-73964092D01*
X123925253Y-73909826D01*
X123925251Y-73909825D01*
X123824178Y-73899500D01*
X123250830Y-73899500D01*
X123250812Y-73899501D01*
X123149747Y-73909825D01*
X122985984Y-73964092D01*
X122985981Y-73964093D01*
X122839148Y-74054661D01*
X122717161Y-74176648D01*
X122626593Y-74323481D01*
X122626591Y-74323486D01*
X122608457Y-74378210D01*
X122572326Y-74487247D01*
X122572326Y-74487248D01*
X122572325Y-74487248D01*
X122562000Y-74588315D01*
X122562000Y-75186669D01*
X122562001Y-75186687D01*
X122572325Y-75287752D01*
X122626592Y-75451515D01*
X122626595Y-75451522D01*
X122670624Y-75522904D01*
X122689064Y-75590296D01*
X122668141Y-75656960D01*
X122614499Y-75701729D01*
X122565085Y-75712000D01*
X121738959Y-75712000D01*
X121688088Y-75722118D01*
X121663900Y-75724500D01*
X121550831Y-75724500D01*
X121550812Y-75724501D01*
X121449747Y-75734825D01*
X121285984Y-75789092D01*
X121285981Y-75789093D01*
X121139149Y-75879660D01*
X121125176Y-75893633D01*
X121117231Y-75897970D01*
X121111809Y-75905214D01*
X121087051Y-75914448D01*
X121063851Y-75927115D01*
X121054823Y-75926468D01*
X121046345Y-75929631D01*
X121020520Y-75924013D01*
X120994159Y-75922126D01*
X120985109Y-75916309D01*
X120978072Y-75914779D01*
X120949818Y-75893628D01*
X120943871Y-75887681D01*
X120910386Y-75826358D01*
X120915370Y-75756666D01*
X120943871Y-75712319D01*
X120946800Y-75709390D01*
X120957840Y-75698350D01*
X121048408Y-75551516D01*
X121102674Y-75387753D01*
X121113000Y-75286677D01*
X121112999Y-75173935D01*
X121115382Y-75149742D01*
X121138000Y-75036042D01*
X121138000Y-74838956D01*
X121115382Y-74725252D01*
X121112999Y-74701060D01*
X121112999Y-74588330D01*
X121112998Y-74588313D01*
X121102674Y-74487247D01*
X121092871Y-74457664D01*
X121048408Y-74323484D01*
X120957840Y-74176650D01*
X120835850Y-74054660D01*
X120689016Y-73964092D01*
X120525253Y-73909826D01*
X120525251Y-73909825D01*
X120424178Y-73899500D01*
X119850830Y-73899500D01*
X119850812Y-73899501D01*
X119749747Y-73909825D01*
X119703884Y-73925023D01*
X119686734Y-73930706D01*
X119647732Y-73937000D01*
X118927268Y-73937000D01*
X118888264Y-73930706D01*
X118825253Y-73909826D01*
X118825251Y-73909825D01*
X118724178Y-73899500D01*
X118150830Y-73899500D01*
X118150812Y-73899501D01*
X118049747Y-73909825D01*
X117885984Y-73964092D01*
X117885981Y-73964093D01*
X117739148Y-74054661D01*
X117617161Y-74176648D01*
X117526593Y-74323481D01*
X117526591Y-74323486D01*
X117508457Y-74378210D01*
X117472326Y-74487247D01*
X117472326Y-74487248D01*
X117472325Y-74487248D01*
X117462000Y-74588315D01*
X117462000Y-75186669D01*
X117462001Y-75186687D01*
X117472325Y-75287752D01*
X117526592Y-75451515D01*
X117526593Y-75451518D01*
X117536534Y-75467635D01*
X117617160Y-75598350D01*
X117739150Y-75720340D01*
X117885984Y-75810908D01*
X118049747Y-75865174D01*
X118115203Y-75871860D01*
X118150052Y-75880657D01*
X118195659Y-75899549D01*
X118195662Y-75899549D01*
X118195665Y-75899551D01*
X118195669Y-75899551D01*
X118195670Y-75899552D01*
X118388956Y-75938000D01*
X118388959Y-75938000D01*
X119091483Y-75938000D01*
X119158522Y-75957685D01*
X119204277Y-76010489D01*
X119214221Y-76079647D01*
X119209190Y-76100998D01*
X119172326Y-76212247D01*
X119172326Y-76212248D01*
X119172325Y-76212248D01*
X119162000Y-76313315D01*
X119162000Y-77011669D01*
X119162001Y-77011687D01*
X119172325Y-77112752D01*
X119172326Y-77112755D01*
X119226591Y-77276515D01*
X119226592Y-77276516D01*
X119268538Y-77344522D01*
X119273234Y-77361077D01*
X119281977Y-77374682D01*
X119287000Y-77409617D01*
X119287000Y-77456262D01*
X119267315Y-77523301D01*
X119214511Y-77569056D01*
X119145353Y-77579000D01*
X119138810Y-77577880D01*
X119052399Y-77560692D01*
X119021267Y-77554500D01*
X118853733Y-77554500D01*
X118853728Y-77554500D01*
X118689425Y-77587182D01*
X118689417Y-77587184D01*
X118534639Y-77651295D01*
X118395337Y-77744373D01*
X118276876Y-77862834D01*
X118276873Y-77862838D01*
X118183800Y-78002130D01*
X118183793Y-78002143D01*
X118152393Y-78077952D01*
X118108552Y-78132356D01*
X118042258Y-78154421D01*
X118037832Y-78154500D01*
X116707457Y-78154500D01*
X116514166Y-78192948D01*
X116514162Y-78192949D01*
X116460775Y-78215062D01*
X116459785Y-78215308D01*
X116459372Y-78215633D01*
X116455415Y-78216394D01*
X116425070Y-78223942D01*
X116419203Y-78224500D01*
X116350824Y-78224501D01*
X116249747Y-78234826D01*
X116225203Y-78242958D01*
X116211245Y-78244287D01*
X116190148Y-78240213D01*
X116168674Y-78240952D01*
X116156523Y-78233721D01*
X116142643Y-78231041D01*
X116127097Y-78216208D01*
X116108633Y-78205220D01*
X116102321Y-78192569D01*
X116092092Y-78182809D01*
X116087032Y-78161924D01*
X116077441Y-78142699D01*
X116075500Y-78120845D01*
X116075500Y-72224500D01*
X116095185Y-72157461D01*
X116147989Y-72111706D01*
X116199500Y-72100500D01*
X134575500Y-72100500D01*
X134642539Y-72120185D01*
G37*
%TD.AperFunction*%
%TD*%
M02*
